<?xml version="1.0" encoding="utf-8"?>
<!-- Generator: Adobe Illustrator 22.0.1, SVG Export Plug-In . SVG Version: 6.00 Build 0)  -->
<svg version="1.1" xmlns="http://www.w3.org/2000/svg" xmlns:xlink="http://www.w3.org/1999/xlink" x="0px" y="0px"
	 viewBox="0 0 249.3 79.2" style="enable-background:new 0 0 249.3 79.2;" xml:space="preserve">
<style type="text/css">
	.st0{clip-path:url(#XMLID_93_);fill:#FED318;}
	.st1{clip-path:url(#XMLID_93_);fill:#FED418;}
	.st2{clip-path:url(#XMLID_93_);fill:#FED518;}
	.st3{clip-path:url(#XMLID_93_);fill:#FED618;}
	.st4{clip-path:url(#XMLID_93_);fill:#FED718;}
	.st5{clip-path:url(#XMLID_93_);fill:#FED818;}
	.st6{clip-path:url(#XMLID_93_);fill:#FED917;}
	.st7{clip-path:url(#XMLID_93_);fill:#FFDA17;}
	.st8{clip-path:url(#XMLID_93_);fill:#FFDB17;}
	.st9{clip-path:url(#XMLID_93_);fill:#FFDC17;}
	.st10{clip-path:url(#XMLID_93_);fill:#FFDD17;}
	.st11{clip-path:url(#XMLID_93_);fill:#FFDE17;}
	.st12{clip-path:url(#XMLID_512_);fill:#FED718;}
	.st13{clip-path:url(#XMLID_512_);fill:#FED818;}
	.st14{clip-path:url(#XMLID_512_);fill:#FED917;}
	.st15{clip-path:url(#XMLID_512_);fill:#FFDA17;}
	.st16{clip-path:url(#XMLID_512_);fill:#FFDB17;}
	.st17{clip-path:url(#XMLID_512_);fill:#FFDC17;}
	.st18{clip-path:url(#XMLID_512_);fill:#FFDD17;}
	.st19{clip-path:url(#XMLID_512_);fill:#FFDE17;}
	.st20{clip-path:url(#XMLID_513_);fill:#FDCF18;}
	.st21{clip-path:url(#XMLID_513_);fill:#FDD018;}
	.st22{clip-path:url(#XMLID_513_);fill:#FED118;}
	.st23{clip-path:url(#XMLID_513_);fill:#FED218;}
	.st24{clip-path:url(#XMLID_513_);fill:#FED318;}
	.st25{clip-path:url(#XMLID_513_);fill:#FED418;}
	.st26{clip-path:url(#XMLID_513_);fill:#FED518;}
	.st27{clip-path:url(#XMLID_513_);fill:#FED618;}
	.st28{clip-path:url(#XMLID_513_);fill:#FED718;}
	.st29{clip-path:url(#XMLID_513_);fill:#FED818;}
	.st30{clip-path:url(#XMLID_513_);fill:#FED917;}
	.st31{clip-path:url(#XMLID_513_);fill:#FFDA17;}
	.st32{clip-path:url(#XMLID_513_);fill:#FFDB17;}
	.st33{clip-path:url(#XMLID_513_);fill:#FFDC17;}
	.st34{clip-path:url(#XMLID_513_);fill:#FFDD17;}
	.st35{clip-path:url(#XMLID_513_);fill:#FFDE17;}
	.st36{clip-path:url(#XMLID_514_);fill:#FCC31A;}
	.st37{clip-path:url(#XMLID_514_);fill:#FCC419;}
	.st38{clip-path:url(#XMLID_514_);fill:#FCC519;}
	.st39{clip-path:url(#XMLID_514_);fill:#FCC619;}
	.st40{clip-path:url(#XMLID_514_);fill:#FCC719;}
	.st41{clip-path:url(#XMLID_514_);fill:#FDC819;}
	.st42{clip-path:url(#XMLID_514_);fill:#FDC919;}
	.st43{clip-path:url(#XMLID_514_);fill:#FDCA19;}
	.st44{clip-path:url(#XMLID_514_);fill:#FDCB19;}
	.st45{clip-path:url(#XMLID_514_);fill:#FDCC19;}
	.st46{clip-path:url(#XMLID_514_);fill:#FDCD19;}
	.st47{clip-path:url(#XMLID_514_);fill:#FDCE19;}
	.st48{clip-path:url(#XMLID_514_);fill:#FDCF18;}
	.st49{clip-path:url(#XMLID_514_);fill:#FDD018;}
	.st50{clip-path:url(#XMLID_514_);fill:#FED118;}
	.st51{clip-path:url(#XMLID_514_);fill:#FED218;}
	.st52{clip-path:url(#XMLID_515_);fill:#FAB01B;}
	.st53{clip-path:url(#XMLID_515_);fill:#FAB11B;}
	.st54{clip-path:url(#XMLID_515_);fill:#FAB21B;}
	.st55{clip-path:url(#XMLID_515_);fill:#FAB31B;}
	.st56{clip-path:url(#XMLID_515_);fill:#FBB41B;}
	.st57{clip-path:url(#XMLID_515_);fill:#FBB51B;}
	.st58{clip-path:url(#XMLID_515_);fill:#FBB61B;}
	.st59{clip-path:url(#XMLID_515_);fill:#FBB71B;}
	.st60{clip-path:url(#XMLID_515_);fill:#FBB81B;}
	.st61{clip-path:url(#XMLID_515_);fill:#FBBA1A;}
	.st62{clip-path:url(#XMLID_515_);fill:#FBBB1A;}
	.st63{clip-path:url(#XMLID_515_);fill:#FBBC1A;}
	.st64{clip-path:url(#XMLID_515_);fill:#FBBD1A;}
	.st65{clip-path:url(#XMLID_515_);fill:#FBBE1A;}
	.st66{clip-path:url(#XMLID_515_);fill:#FCBF1A;}
	.st67{clip-path:url(#XMLID_515_);fill:#FCC01A;}
	.st68{clip-path:url(#XMLID_515_);fill:#FCC11A;}
	.st69{clip-path:url(#XMLID_516_);fill:#F8A11D;}
	.st70{clip-path:url(#XMLID_516_);fill:#F9A21D;}
	.st71{clip-path:url(#XMLID_516_);fill:#F9A31D;}
	.st72{clip-path:url(#XMLID_516_);fill:#F9A41C;}
	.st73{clip-path:url(#XMLID_516_);fill:#F9A51C;}
	.st74{clip-path:url(#XMLID_516_);fill:#F9A61C;}
	.st75{clip-path:url(#XMLID_516_);fill:#F9A71C;}
	.st76{clip-path:url(#XMLID_516_);fill:#F9A81C;}
	.st77{clip-path:url(#XMLID_516_);fill:#F9A91C;}
	.st78{clip-path:url(#XMLID_516_);fill:#F9AA1C;}
	.st79{clip-path:url(#XMLID_516_);fill:#FAAB1C;}
	.st80{clip-path:url(#XMLID_516_);fill:#FAAC1C;}
	.st81{clip-path:url(#XMLID_516_);fill:#FAAD1C;}
	.st82{clip-path:url(#XMLID_516_);fill:#FAAE1C;}
	.st83{clip-path:url(#XMLID_516_);fill:#FAAF1B;}
	.st84{clip-path:url(#XMLID_516_);fill:#FAB01B;}
	.st85{clip-path:url(#XMLID_516_);fill:#FAB11B;}
	.st86{clip-path:url(#XMLID_516_);fill:#FAB21B;}
	.st87{clip-path:url(#XMLID_516_);fill:#FAB31B;}
	.st88{clip-path:url(#XMLID_517_);fill:#F89A1D;}
	.st89{clip-path:url(#XMLID_517_);fill:#F89B1D;}
	.st90{clip-path:url(#XMLID_517_);fill:#F89C1D;}
	.st91{clip-path:url(#XMLID_517_);fill:#F89D1D;}
	.st92{clip-path:url(#XMLID_517_);fill:#F89E1D;}
	.st93{clip-path:url(#XMLID_517_);fill:#F89F1D;}
	.st94{clip-path:url(#XMLID_517_);fill:#F8A01D;}
	.st95{clip-path:url(#XMLID_517_);fill:#F8A11D;}
	.st96{clip-path:url(#XMLID_517_);fill:#F9A21D;}
	.st97{clip-path:url(#XMLID_517_);fill:#F9A31D;}
	.st98{clip-path:url(#XMLID_517_);fill:#F9A41C;}
	.st99{clip-path:url(#XMLID_517_);fill:#F9A51C;}
	.st100{clip-path:url(#XMLID_517_);fill:#F9A61C;}
	.st101{clip-path:url(#XMLID_517_);fill:#F9A71C;}
	.st102{clip-path:url(#XMLID_517_);fill:#F9A81C;}
	.st103{clip-path:url(#XMLID_517_);fill:#F9A91C;}
	.st104{clip-path:url(#XMLID_517_);fill:#F9AA1C;}
	.st105{clip-path:url(#XMLID_518_);fill:#F89B1D;}
	.st106{clip-path:url(#XMLID_518_);fill:#F89C1D;}
	.st107{clip-path:url(#XMLID_518_);fill:#F89D1D;}
	.st108{clip-path:url(#XMLID_518_);fill:#F89E1D;}
	.st109{clip-path:url(#XMLID_518_);fill:#F89F1D;}
	.st110{clip-path:url(#XMLID_518_);fill:#F8A01D;}
	.st111{clip-path:url(#XMLID_518_);fill:#F8A11D;}
	.st112{clip-path:url(#XMLID_518_);fill:#F9A21D;}
	.st113{clip-path:url(#XMLID_518_);fill:#F9A31D;}
	.st114{clip-path:url(#XMLID_518_);fill:#F9A41C;}
	.st115{clip-path:url(#XMLID_518_);fill:#F9A51C;}
	.st116{clip-path:url(#XMLID_518_);fill:#F9A61C;}
	.st117{clip-path:url(#XMLID_518_);fill:#F9A71C;}
	.st118{clip-path:url(#XMLID_518_);fill:#F9A81C;}
	.st119{clip-path:url(#XMLID_518_);fill:#F9A91C;}
	.st120{clip-path:url(#XMLID_518_);fill:#F9AA1C;}
	.st121{clip-path:url(#XMLID_519_);fill:#FAB11B;}
	.st122{clip-path:url(#XMLID_519_);fill:#FAB21B;}
	.st123{clip-path:url(#XMLID_519_);fill:#FAB31B;}
	.st124{clip-path:url(#XMLID_519_);fill:#FBB41B;}
	.st125{clip-path:url(#XMLID_519_);fill:#FBB51B;}
	.st126{clip-path:url(#XMLID_519_);fill:#FBB61B;}
	.st127{clip-path:url(#XMLID_519_);fill:#FBB71B;}
	.st128{clip-path:url(#XMLID_519_);fill:#FBB81B;}
	.st129{clip-path:url(#XMLID_519_);fill:#FBBA1A;}
	.st130{clip-path:url(#XMLID_519_);fill:#FBBB1A;}
	.st131{clip-path:url(#XMLID_519_);fill:#FBBC1A;}
	.st132{clip-path:url(#XMLID_519_);fill:#FBBD1A;}
	.st133{clip-path:url(#XMLID_519_);fill:#FBBE1A;}
	.st134{clip-path:url(#XMLID_519_);fill:#FCBF1A;}
	.st135{clip-path:url(#XMLID_519_);fill:#FCC01A;}
	.st136{clip-path:url(#XMLID_519_);fill:#FCC11A;}
	.st137{clip-path:url(#XMLID_519_);fill:#FCC21A;}
	.st138{clip-path:url(#XMLID_520_);fill:#F9A21D;}
	.st139{clip-path:url(#XMLID_520_);fill:#F9A31D;}
	.st140{clip-path:url(#XMLID_520_);fill:#F9A41C;}
	.st141{clip-path:url(#XMLID_520_);fill:#F9A51C;}
	.st142{clip-path:url(#XMLID_520_);fill:#F9A61C;}
	.st143{clip-path:url(#XMLID_520_);fill:#F9A71C;}
	.st144{clip-path:url(#XMLID_520_);fill:#F9A81C;}
	.st145{clip-path:url(#XMLID_520_);fill:#F9A91C;}
	.st146{clip-path:url(#XMLID_520_);fill:#F9AA1C;}
	.st147{clip-path:url(#XMLID_520_);fill:#FAAB1C;}
	.st148{clip-path:url(#XMLID_520_);fill:#FAAC1C;}
	.st149{clip-path:url(#XMLID_520_);fill:#FAAD1C;}
	.st150{clip-path:url(#XMLID_520_);fill:#FAAE1C;}
	.st151{clip-path:url(#XMLID_520_);fill:#FAAF1B;}
	.st152{clip-path:url(#XMLID_520_);fill:#FAB01B;}
	.st153{clip-path:url(#XMLID_520_);fill:#FAB11B;}
	.st154{clip-path:url(#XMLID_520_);fill:#FAB21B;}
	.st155{clip-path:url(#XMLID_520_);fill:#FAB31B;}
	.st156{clip-path:url(#XMLID_520_);fill:#FBB41B;}
	.st157{clip-path:url(#XMLID_521_);fill:#FCC619;}
	.st158{clip-path:url(#XMLID_521_);fill:#FCC719;}
	.st159{clip-path:url(#XMLID_521_);fill:#FDC819;}
	.st160{clip-path:url(#XMLID_521_);fill:#FDC919;}
	.st161{clip-path:url(#XMLID_521_);fill:#FDCA19;}
	.st162{clip-path:url(#XMLID_521_);fill:#FDCB19;}
	.st163{clip-path:url(#XMLID_521_);fill:#FDCC19;}
	.st164{clip-path:url(#XMLID_521_);fill:#FDCD19;}
	.st165{clip-path:url(#XMLID_521_);fill:#FDCE19;}
	.st166{clip-path:url(#XMLID_521_);fill:#FDCF18;}
	.st167{clip-path:url(#XMLID_521_);fill:#FDD018;}
	.st168{clip-path:url(#XMLID_521_);fill:#FED118;}
	.st169{clip-path:url(#XMLID_521_);fill:#FED218;}
	.st170{clip-path:url(#XMLID_521_);fill:#FED318;}
	.st171{clip-path:url(#XMLID_521_);fill:#FED418;}
	.st172{clip-path:url(#XMLID_521_);fill:#FED518;}
	.st173{clip-path:url(#XMLID_521_);fill:#FED618;}
	.st174{clip-path:url(#XMLID_521_);fill:#FED718;}
	.st175{clip-path:url(#XMLID_522_);fill:#F7941E;}
	.st176{clip-path:url(#XMLID_522_);fill:#F7951E;}
	.st177{clip-path:url(#XMLID_522_);fill:#F7961E;}
	.st178{clip-path:url(#XMLID_522_);fill:#F7971E;}
	.st179{clip-path:url(#XMLID_522_);fill:#F7981E;}
	.st180{clip-path:url(#XMLID_522_);fill:#F8991E;}
	.st181{clip-path:url(#XMLID_522_);fill:#F89A1D;}
	.st182{clip-path:url(#XMLID_522_);fill:#F89B1D;}
	.st183{clip-path:url(#XMLID_522_);fill:#F89C1D;}
	.st184{clip-path:url(#XMLID_522_);fill:#F89D1D;}
	.st185{clip-path:url(#XMLID_522_);fill:#F89E1D;}
	.st186{clip-path:url(#XMLID_522_);fill:#F89F1D;}
	.st187{clip-path:url(#XMLID_522_);fill:#F8A01D;}
	.st188{clip-path:url(#XMLID_522_);fill:#F8A11D;}
	.st189{clip-path:url(#XMLID_522_);fill:#F9A21D;}
	.st190{clip-path:url(#XMLID_522_);fill:#F9A31D;}
	.st191{clip-path:url(#XMLID_522_);fill:#F9A41C;}
	.st192{clip-path:url(#XMLID_522_);fill:#F9A51C;}
	.st193{clip-path:url(#XMLID_522_);fill:#F9A61C;}
	.st194{clip-path:url(#XMLID_522_);fill:#F9A71C;}
	.st195{clip-path:url(#XMLID_522_);fill:#F9A81C;}
	.st196{clip-path:url(#XMLID_522_);fill:#F9A91C;}
	.st197{clip-path:url(#XMLID_522_);fill:#F9AA1C;}
	.st198{clip-path:url(#XMLID_522_);fill:#FAAB1C;}
	.st199{clip-path:url(#XMLID_522_);fill:#FAAC1C;}
	.st200{clip-path:url(#XMLID_522_);fill:#FAAD1C;}
	.st201{clip-path:url(#XMLID_522_);fill:#FAAE1C;}
	.st202{clip-path:url(#XMLID_522_);fill:#FAAF1B;}
	.st203{clip-path:url(#XMLID_522_);fill:#FAB01B;}
	.st204{clip-path:url(#XMLID_522_);fill:#FAB11B;}
	.st205{clip-path:url(#XMLID_522_);fill:#FAB21B;}
	.st206{clip-path:url(#XMLID_522_);fill:#FAB31B;}
	.st207{clip-path:url(#XMLID_522_);fill:#FBB41B;}
	.st208{clip-path:url(#XMLID_522_);fill:#FBB51B;}
	.st209{clip-path:url(#XMLID_522_);fill:#FBB61B;}
	.st210{clip-path:url(#XMLID_522_);fill:#FBB71B;}
	.st211{clip-path:url(#XMLID_522_);fill:#FBB81B;}
	.st212{clip-path:url(#XMLID_522_);fill:#FBBA1A;}
	.st213{clip-path:url(#XMLID_522_);fill:#FBBB1A;}
	.st214{clip-path:url(#XMLID_522_);fill:#FBBC1A;}
	.st215{clip-path:url(#XMLID_522_);fill:#FBBD1A;}
	.st216{clip-path:url(#XMLID_522_);fill:#FBBE1A;}
	.st217{clip-path:url(#XMLID_522_);fill:#FCBF1A;}
	.st218{clip-path:url(#XMLID_522_);fill:#FCC01A;}
	.st219{clip-path:url(#XMLID_522_);fill:#FCC11A;}
	.st220{clip-path:url(#XMLID_522_);fill:#FCC21A;}
	.st221{clip-path:url(#XMLID_522_);fill:#FCC31A;}
	.st222{clip-path:url(#XMLID_522_);fill:#FCC419;}
	.st223{clip-path:url(#XMLID_522_);fill:#FCC519;}
	.st224{clip-path:url(#XMLID_522_);fill:#FCC619;}
	.st225{clip-path:url(#XMLID_522_);fill:#FCC719;}
	.st226{clip-path:url(#XMLID_522_);fill:#FDC819;}
	.st227{clip-path:url(#XMLID_522_);fill:#FDC919;}
	.st228{clip-path:url(#XMLID_522_);fill:#FDCA19;}
	.st229{clip-path:url(#XMLID_522_);fill:#FDCB19;}
	.st230{clip-path:url(#XMLID_522_);fill:#FDCC19;}
	.st231{clip-path:url(#XMLID_522_);fill:#FDCD19;}
	.st232{clip-path:url(#XMLID_522_);fill:#FDCE19;}
	.st233{clip-path:url(#XMLID_522_);fill:#FDCF18;}
	.st234{clip-path:url(#XMLID_522_);fill:#FDD018;}
	.st235{clip-path:url(#XMLID_522_);fill:#FED118;}
	.st236{clip-path:url(#XMLID_522_);fill:#FED218;}
	.st237{clip-path:url(#XMLID_522_);fill:#FED318;}
	.st238{clip-path:url(#XMLID_522_);fill:#FED418;}
	.st239{clip-path:url(#XMLID_522_);fill:#FED518;}
	.st240{clip-path:url(#XMLID_522_);fill:#FED618;}
	.st241{clip-path:url(#XMLID_522_);fill:#FED718;}
	.st242{clip-path:url(#XMLID_522_);fill:#FED818;}
	.st243{clip-path:url(#XMLID_522_);fill:#FED917;}
	.st244{clip-path:url(#XMLID_522_);fill:#FFDA17;}
	.st245{clip-path:url(#XMLID_522_);fill:#FFDB17;}
	.st246{clip-path:url(#XMLID_522_);fill:#FFDC17;}
	.st247{clip-path:url(#XMLID_522_);fill:#FFDD17;}
	.st248{clip-path:url(#XMLID_522_);fill:#FFDE17;}
	.st249{clip-path:url(#XMLID_523_);fill:#F9A81C;}
	.st250{clip-path:url(#XMLID_523_);fill:#F9A91C;}
	.st251{clip-path:url(#XMLID_523_);fill:#F9AA1C;}
	.st252{clip-path:url(#XMLID_523_);fill:#FAAB1C;}
	.st253{clip-path:url(#XMLID_523_);fill:#FAAC1C;}
	.st254{clip-path:url(#XMLID_523_);fill:#FAAD1C;}
	.st255{clip-path:url(#XMLID_523_);fill:#FAAE1C;}
	.st256{clip-path:url(#XMLID_523_);fill:#FAAF1B;}
	.st257{clip-path:url(#XMLID_523_);fill:#FAB01B;}
	.st258{clip-path:url(#XMLID_523_);fill:#FAB11B;}
	.st259{clip-path:url(#XMLID_523_);fill:#FAB21B;}
	.st260{clip-path:url(#XMLID_523_);fill:#FAB31B;}
	.st261{clip-path:url(#XMLID_523_);fill:#FBB41B;}
	.st262{clip-path:url(#XMLID_523_);fill:#FBB51B;}
	.st263{clip-path:url(#XMLID_523_);fill:#FBB61B;}
	.st264{clip-path:url(#XMLID_523_);fill:#FBB71B;}
	.st265{clip-path:url(#XMLID_523_);fill:#FBB81B;}
	.st266{clip-path:url(#XMLID_523_);fill:#FBBA1A;}
	.st267{clip-path:url(#XMLID_523_);fill:#FBBB1A;}
	.st268{clip-path:url(#XMLID_523_);fill:#FBBC1A;}
	.st269{clip-path:url(#XMLID_523_);fill:#FBBD1A;}
	.st270{clip-path:url(#XMLID_523_);fill:#FBBE1A;}
	.st271{clip-path:url(#XMLID_523_);fill:#FCBF1A;}
	.st272{clip-path:url(#XMLID_523_);fill:#FCC01A;}
	.st273{clip-path:url(#XMLID_523_);fill:#FCC11A;}
	.st274{clip-path:url(#XMLID_523_);fill:#FCC21A;}
	.st275{clip-path:url(#XMLID_523_);fill:#FCC31A;}
	.st276{clip-path:url(#XMLID_523_);fill:#FCC419;}
	.st277{clip-path:url(#XMLID_523_);fill:#FCC519;}
	.st278{clip-path:url(#XMLID_523_);fill:#FCC619;}
	.st279{clip-path:url(#XMLID_523_);fill:#FCC719;}
	.st280{clip-path:url(#XMLID_523_);fill:#FDC819;}
	.st281{clip-path:url(#XMLID_523_);fill:#FDC919;}
	.st282{clip-path:url(#XMLID_523_);fill:#FDCA19;}
	.st283{clip-path:url(#XMLID_523_);fill:#FDCB19;}
	.st284{clip-path:url(#XMLID_523_);fill:#FDCC19;}
	.st285{clip-path:url(#XMLID_523_);fill:#FDCD19;}
	.st286{clip-path:url(#XMLID_523_);fill:#FDCE19;}
	.st287{clip-path:url(#XMLID_523_);fill:#FDCF18;}
	.st288{clip-path:url(#XMLID_523_);fill:#FDD018;}
	.st289{clip-path:url(#XMLID_524_);fill:#F7941E;}
	.st290{clip-path:url(#XMLID_524_);fill:#F7951E;}
	.st291{clip-path:url(#XMLID_524_);fill:#F7961E;}
	.st292{clip-path:url(#XMLID_524_);fill:#F7971E;}
	.st293{clip-path:url(#XMLID_524_);fill:#F7981E;}
	.st294{clip-path:url(#XMLID_524_);fill:#F8991E;}
	.st295{clip-path:url(#XMLID_524_);fill:#F89A1D;}
	.st296{clip-path:url(#XMLID_524_);fill:#F89B1D;}
	.st297{clip-path:url(#XMLID_524_);fill:#F89C1D;}
	.st298{clip-path:url(#XMLID_524_);fill:#F89D1D;}
	.st299{clip-path:url(#XMLID_524_);fill:#F89E1D;}
	.st300{clip-path:url(#XMLID_524_);fill:#F89F1D;}
	.st301{clip-path:url(#XMLID_524_);fill:#F8A01D;}
	.st302{clip-path:url(#XMLID_524_);fill:#F8A11D;}
	.st303{clip-path:url(#XMLID_524_);fill:#F9A21D;}
	.st304{clip-path:url(#XMLID_524_);fill:#F9A31D;}
	.st305{clip-path:url(#XMLID_524_);fill:#F9A41C;}
	.st306{clip-path:url(#XMLID_524_);fill:#F9A51C;}
	.st307{clip-path:url(#XMLID_524_);fill:#F9A61C;}
	.st308{clip-path:url(#XMLID_524_);fill:#F9A71C;}
	.st309{clip-path:url(#XMLID_524_);fill:#F9A81C;}
	.st310{clip-path:url(#XMLID_524_);fill:#F9A91C;}
	.st311{clip-path:url(#XMLID_524_);fill:#F9AA1C;}
	.st312{clip-path:url(#XMLID_524_);fill:#FAAB1C;}
	.st313{clip-path:url(#XMLID_524_);fill:#FAAC1C;}
	.st314{clip-path:url(#XMLID_524_);fill:#FAAD1C;}
	.st315{clip-path:url(#XMLID_524_);fill:#FAAE1C;}
	.st316{clip-path:url(#XMLID_524_);fill:#FAAF1B;}
	.st317{clip-path:url(#XMLID_524_);fill:#FAB01B;}
	.st318{clip-path:url(#XMLID_524_);fill:#FAB11B;}
	.st319{clip-path:url(#XMLID_524_);fill:#FAB21B;}
	.st320{clip-path:url(#XMLID_524_);fill:#FAB31B;}
	.st321{clip-path:url(#XMLID_524_);fill:#FBB41B;}
	.st322{clip-path:url(#XMLID_524_);fill:#FBB51B;}
	.st323{clip-path:url(#XMLID_524_);fill:#FBB61B;}
	.st324{clip-path:url(#XMLID_524_);fill:#FBB71B;}
	.st325{clip-path:url(#XMLID_524_);fill:#FBB81B;}
	.st326{clip-path:url(#XMLID_524_);fill:#FBBA1A;}
	.st327{clip-path:url(#XMLID_524_);fill:#FBBB1A;}
	.st328{clip-path:url(#XMLID_524_);fill:#FBBC1A;}
	.st329{clip-path:url(#XMLID_524_);fill:#FBBD1A;}
	.st330{clip-path:url(#XMLID_524_);fill:#FBBE1A;}
	.st331{clip-path:url(#XMLID_524_);fill:#FCBF1A;}
	.st332{clip-path:url(#XMLID_524_);fill:#FCC01A;}
	.st333{clip-path:url(#XMLID_524_);fill:#FCC11A;}
	.st334{clip-path:url(#XMLID_524_);fill:#FCC21A;}
	.st335{clip-path:url(#XMLID_524_);fill:#FCC31A;}
	.st336{clip-path:url(#XMLID_524_);fill:#FCC419;}
	.st337{clip-path:url(#XMLID_524_);fill:#FCC519;}
	.st338{clip-path:url(#XMLID_524_);fill:#FCC619;}
	.st339{clip-path:url(#XMLID_524_);fill:#FCC719;}
	.st340{clip-path:url(#XMLID_524_);fill:#FDC819;}
	.st341{clip-path:url(#XMLID_524_);fill:#FDC919;}
	.st342{clip-path:url(#XMLID_524_);fill:#FDCA19;}
	.st343{clip-path:url(#XMLID_524_);fill:#FDCB19;}
	.st344{clip-path:url(#XMLID_524_);fill:#FDCC19;}
	.st345{clip-path:url(#XMLID_524_);fill:#FDCD19;}
	.st346{clip-path:url(#XMLID_525_);fill:#FDCA19;}
	.st347{clip-path:url(#XMLID_525_);fill:#FDCB19;}
	.st348{clip-path:url(#XMLID_525_);fill:#FDCC19;}
	.st349{clip-path:url(#XMLID_525_);fill:#FDCD19;}
	.st350{clip-path:url(#XMLID_525_);fill:#FDCE19;}
	.st351{clip-path:url(#XMLID_525_);fill:#FDCF18;}
	.st352{clip-path:url(#XMLID_525_);fill:#FDD018;}
	.st353{clip-path:url(#XMLID_525_);fill:#FED118;}
	.st354{clip-path:url(#XMLID_525_);fill:#FED218;}
	.st355{clip-path:url(#XMLID_525_);fill:#FED318;}
	.st356{clip-path:url(#XMLID_525_);fill:#FED418;}
	.st357{clip-path:url(#XMLID_525_);fill:#FED518;}
	.st358{clip-path:url(#XMLID_525_);fill:#FED618;}
	.st359{clip-path:url(#XMLID_525_);fill:#FED718;}
	.st360{clip-path:url(#XMLID_525_);fill:#FED818;}
	.st361{clip-path:url(#XMLID_525_);fill:#FED917;}
	.st362{clip-path:url(#XMLID_525_);fill:#FFDA17;}
	.st363{clip-path:url(#XMLID_525_);fill:#FFDB17;}
	.st364{clip-path:url(#XMLID_525_);fill:#FFDC17;}
	.st365{clip-path:url(#XMLID_525_);fill:#FFDD17;}
	.st366{clip-path:url(#XMLID_525_);fill:#F9A61C;}
	.st367{clip-path:url(#XMLID_525_);fill:#F9A71C;}
	.st368{clip-path:url(#XMLID_525_);fill:#F9A81C;}
	.st369{clip-path:url(#XMLID_525_);fill:#F9A91C;}
	.st370{clip-path:url(#XMLID_525_);fill:#F9AA1C;}
	.st371{clip-path:url(#XMLID_525_);fill:#FAAB1C;}
	.st372{clip-path:url(#XMLID_525_);fill:#FAAC1C;}
	.st373{clip-path:url(#XMLID_525_);fill:#FAAD1C;}
	.st374{clip-path:url(#XMLID_525_);fill:#FAAE1C;}
	.st375{clip-path:url(#XMLID_525_);fill:#FAAF1B;}
	.st376{clip-path:url(#XMLID_525_);fill:#FAB01B;}
	.st377{clip-path:url(#XMLID_525_);fill:#FAB11B;}
	.st378{clip-path:url(#XMLID_525_);fill:#FAB21B;}
	.st379{clip-path:url(#XMLID_525_);fill:#FAB31B;}
	.st380{clip-path:url(#XMLID_525_);fill:#FBB41B;}
	.st381{clip-path:url(#XMLID_525_);fill:#FBB51B;}
	.st382{clip-path:url(#XMLID_525_);fill:#FBB61B;}
	.st383{clip-path:url(#XMLID_525_);fill:#FBB71B;}
	.st384{clip-path:url(#XMLID_525_);fill:#FBB81B;}
	.st385{clip-path:url(#XMLID_525_);fill:#FBBA1A;}
	.st386{clip-path:url(#XMLID_525_);fill:#FBBB1A;}
	.st387{clip-path:url(#XMLID_525_);fill:#FBBC1A;}
	.st388{clip-path:url(#XMLID_525_);fill:#FBBD1A;}
	.st389{clip-path:url(#XMLID_525_);fill:#FBBE1A;}
	.st390{clip-path:url(#XMLID_525_);fill:#FCBF1A;}
	.st391{clip-path:url(#XMLID_525_);fill:#FCC01A;}
	.st392{clip-path:url(#XMLID_525_);fill:#FCC11A;}
	.st393{clip-path:url(#XMLID_525_);fill:#FCC21A;}
	.st394{clip-path:url(#XMLID_525_);fill:#FCC31A;}
	.st395{clip-path:url(#XMLID_525_);fill:#FCC419;}
	.st396{clip-path:url(#XMLID_525_);fill:#FCC519;}
	.st397{clip-path:url(#XMLID_525_);fill:#FCC619;}
	.st398{clip-path:url(#XMLID_525_);fill:#FCC719;}
	.st399{clip-path:url(#XMLID_525_);fill:#FDC819;}
	.st400{clip-path:url(#XMLID_525_);fill:#FDC919;}
	.st401{clip-path:url(#XMLID_525_);fill:#FFDE17;}
	.st402{fill:#0F62FE;}
	.st403{fill:#231F20;}
</style>
<g id="Layer_1">
</g>
<g id="Layer_2">
	<g id="XMLID_2655_">
		<g id="XMLID_2662_">
			<g id="XMLID_2686_">
				<g id="XMLID_2701_">
					<g id="XMLID_2712_">
						<g id="XMLID_497_">
							<defs>
								<path id="XMLID_498_" d="M154.4,14c0.3,0.4,0.8,0.5,1.2,0.3l4.7-3.1c0.3-0.2,0.5-0.6,0.4-1L158.4,2
									c-0.2-0.7-1.1-0.9-1.5-0.3l-5.3,6.4c-0.3,0.3-0.3,0.8-0.1,1.1L154.4,14z"/>
							</defs>
							<clipPath id="XMLID_93_">
								<use xlink:href="#XMLID_498_"  style="overflow:visible;"/>
							</clipPath>
							<polygon id="XMLID_499_" class="st0" points="151.2,14 151.8,14.5 151.2,14.5 							"/>
							<polygon id="XMLID_500_" class="st1" points="151.2,12.8 153.3,14.5 151.8,14.5 151.2,14 							"/>
							<polygon id="XMLID_501_" class="st2" points="151.2,11.7 154.8,14.5 153.3,14.5 151.2,12.8 							"/>
							<polygon id="XMLID_502_" class="st3" points="151.2,10.5 156.3,14.5 154.8,14.5 151.2,11.7 							"/>
							<polygon id="XMLID_503_" class="st4" points="151.2,9.3 157.8,14.5 156.3,14.5 151.2,10.5 							"/>
							<polygon id="XMLID_504_" class="st5" points="151.2,8.1 159.3,14.5 157.8,14.5 151.2,9.3 							"/>
							<polygon id="XMLID_505_" class="st6" points="151.2,7 160.5,14.3 160.4,14.5 159.3,14.5 151.2,8.1 							"/>
							<polygon id="XMLID_506_" class="st7" points="151.2,5.8 160.8,13.3 160.8,14 160.5,14.3 151.2,7 							"/>
							<polygon id="XMLID_507_" class="st8" points="151.2,5.2 151.5,4.8 160.8,12.2 160.8,13.3 151.2,5.8 							"/>
							<polygon id="XMLID_508_" class="st9" points="151.5,4.8 152,4.1 160.8,11 160.8,12.2 							"/>
							<polygon id="XMLID_509_" class="st10" points="152,4.1 152.6,3.4 160.8,9.8 160.8,11 							"/>
							<polygon id="XMLID_510_" class="st11" points="152.6,3.4 153.2,2.7 160.8,8.6 160.8,9.8 							"/>
							<polygon id="XMLID_511_" class="st11" points="153.2,2.7 154.4,1.1 160.8,1.1 160.8,8.6 							"/>
						</g>
					</g>
					<g id="XMLID_2711_">
						<g id="XMLID_486_">
							<defs>
								<path id="XMLID_487_" d="M166.9,20.9l5.5,0.4c0.4,0,0.8-0.2,0.9-0.6l2.9-7.9c0.3-0.7-0.3-1.4-1-1.2l-8,1.8
									c-0.4,0.1-0.7,0.4-0.7,0.8l-0.4,5.7C166,20.4,166.4,20.9,166.9,20.9z"/>
							</defs>
							<clipPath id="XMLID_512_">
								<use xlink:href="#XMLID_487_"  style="overflow:visible;"/>
							</clipPath>
							<polygon id="XMLID_488_" class="st12" points="166,21.2 166.3,21.4 166,21.4 							"/>
							<polygon id="XMLID_489_" class="st13" points="166,20 167.7,21.4 166.3,21.4 166,21.2 							"/>
							<polygon id="XMLID_490_" class="st14" points="166,18.9 169.2,21.4 167.7,21.4 166,20 							"/>
							<polygon id="XMLID_491_" class="st15" points="166,17.7 170.7,21.4 169.2,21.4 166,18.9 							"/>
							<polygon id="XMLID_492_" class="st16" points="166,16.5 172.2,21.4 170.7,21.4 166,17.7 							"/>
							<polygon id="XMLID_493_" class="st17" points="166,15.4 173.7,21.4 172.2,21.4 166,16.5 							"/>
							<polygon id="XMLID_494_" class="st18" points="166,14.2 175.2,21.4 173.7,21.4 166,15.4 							"/>
							<polygon id="XMLID_495_" class="st19" points="166,13 175.9,20.8 175.5,21.4 175.2,21.4 166,14.2 							"/>
							<polygon id="XMLID_496_" class="st19" points="176.5,20.1 175.9,20.8 166,13 166,11.5 176.5,11.5 							"/>
						</g>
					</g>
					<g id="XMLID_2710_">
						<g id="XMLID_467_">
							<defs>
								<path id="XMLID_468_" d="M183.9,29.3l-7.6-3.2c-0.4-0.2-0.8,0-1,0.3l-3.5,4.4c-0.3,0.4-0.3,1,0.1,1.3l4.3,3.6
									c0.3,0.3,0.7,0.3,1.1,0l6.8-4.7C184.7,30.5,184.6,29.6,183.9,29.3z"/>
							</defs>
							<clipPath id="XMLID_513_">
								<use xlink:href="#XMLID_468_"  style="overflow:visible;"/>
							</clipPath>
							<polygon id="XMLID_469_" class="st20" points="171.5,35.1 172.5,35.9 171.5,35.9 							"/>
							<polygon id="XMLID_470_" class="st21" points="171.5,33.9 174,35.9 172.5,35.9 171.5,35.1 							"/>
							<polygon id="XMLID_471_" class="st22" points="171.5,32.8 175.4,35.9 174,35.9 171.5,33.9 							"/>
							<polygon id="XMLID_472_" class="st23" points="171.5,31.6 176.9,35.9 175.4,35.9 171.5,32.8 							"/>
							<polygon id="XMLID_473_" class="st24" points="171.5,30.4 178.4,35.9 176.9,35.9 171.5,31.6 							"/>
							<polygon id="XMLID_474_" class="st25" points="171.5,29.3 179.9,35.9 178.4,35.9 171.5,30.4 							"/>
							<polygon id="XMLID_475_" class="st26" points="171.5,28.1 181.4,35.9 179.9,35.9 171.5,29.3 							"/>
							<polygon id="XMLID_476_" class="st27" points="171.5,27.9 171.9,27.3 182.8,35.9 181.4,35.9 171.5,28.1 							"/>
							<polygon id="XMLID_477_" class="st28" points="171.9,27.3 172.5,26.6 183.5,35.2 183,35.9 182.8,35.9 							"/>
							<polygon id="XMLID_478_" class="st29" points="172.5,26.6 173,25.9 173.1,25.9 184.1,34.5 183.5,35.2 							"/>
							<polygon id="XMLID_479_" class="st30" points="174.6,25.9 184.6,33.8 184.1,34.5 173.1,25.9 							"/>
							<polygon id="XMLID_480_" class="st31" points="176.1,25.9 184.7,32.7 184.7,33.7 184.6,33.8 174.6,25.9 							"/>
							<polygon id="XMLID_481_" class="st32" points="177.6,25.9 184.7,31.5 184.7,32.7 176.1,25.9 							"/>
							<polygon id="XMLID_482_" class="st33" points="179.1,25.9 184.7,30.3 184.7,31.5 177.6,25.9 							"/>
							<polygon id="XMLID_483_" class="st34" points="180.5,25.9 184.7,29.2 184.7,30.3 179.1,25.9 							"/>
							<polygon id="XMLID_484_" class="st35" points="182,25.9 184.7,28 184.7,29.2 180.5,25.9 							"/>
							<polygon id="XMLID_485_" class="st35" points="184.7,28 182,25.9 184.7,25.9 							"/>
						</g>
					</g>
					<g id="XMLID_2709_">
						<g id="XMLID_449_">
							<defs>
								<path id="XMLID_450_" d="M177.8,41.1c-0.2-0.3-0.6-0.5-1-0.4l-5.3,1.7c-0.5,0.2-0.7,0.7-0.6,1.2l1.6,5.4
									c0.1,0.4,0.5,0.7,0.9,0.6l8.2-0.1c0.7,0,1.1-0.8,0.7-1.4L177.8,41.1z"/>
							</defs>
							<clipPath id="XMLID_514_">
								<use xlink:href="#XMLID_450_"  style="overflow:visible;"/>
							</clipPath>
							<polygon id="XMLID_451_" class="st36" points="170.7,48.7 172,49.7 170.7,49.7 							"/>
							<polygon id="XMLID_452_" class="st37" points="170.7,47.5 173.5,49.7 172,49.7 170.7,48.7 							"/>
							<polygon id="XMLID_453_" class="st38" points="170.7,46.3 175,49.7 173.5,49.7 170.7,47.5 							"/>
							<polygon id="XMLID_454_" class="st39" points="170.7,45.1 176.5,49.7 175,49.7 170.7,46.3 							"/>
							<polygon id="XMLID_455_" class="st40" points="170.7,44 178,49.7 176.5,49.7 170.7,45.1 							"/>
							<polygon id="XMLID_456_" class="st41" points="170.7,42.8 179.4,49.7 178,49.7 170.7,44 							"/>
							<polygon id="XMLID_457_" class="st42" points="170.7,41.6 180.9,49.7 179.4,49.7 170.7,42.8 							"/>
							<polygon id="XMLID_458_" class="st43" points="171,40.6 182.4,49.7 180.9,49.7 170.7,41.6 170.7,40.6 							"/>
							<polygon id="XMLID_459_" class="st44" points="172.4,40.6 182.8,48.8 182.8,49.7 182.4,49.7 171,40.6 							"/>
							<polygon id="XMLID_460_" class="st45" points="173.9,40.6 182.8,47.6 182.8,48.8 172.4,40.6 							"/>
							<polygon id="XMLID_461_" class="st46" points="175.4,40.6 182.8,46.4 182.8,47.6 173.9,40.6 							"/>
							<polygon id="XMLID_462_" class="st47" points="176.9,40.6 182.8,45.2 182.8,46.4 175.4,40.6 							"/>
							<polygon id="XMLID_463_" class="st48" points="178.4,40.6 182.8,44.1 182.8,45.2 176.9,40.6 							"/>
							<polygon id="XMLID_464_" class="st49" points="179.9,40.6 182.8,42.9 182.8,44.1 178.4,40.6 							"/>
							<polygon id="XMLID_465_" class="st50" points="181.4,40.6 182.8,41.7 182.8,42.9 179.9,40.6 							"/>
							<polygon id="XMLID_466_" class="st51" points="182.8,41.7 181.4,40.6 182.8,40.6 							"/>
						</g>
					</g>
					<g id="XMLID_2708_">
						<g id="XMLID_430_">
							<defs>
								<path id="XMLID_431_" d="M170.9,54.5c0-0.4-0.3-0.7-0.7-0.8l-5.4-1.1c-0.5-0.1-1,0.2-1.1,0.7l-1.1,5.6
									c-0.1,0.4,0.1,0.8,0.5,1l7.3,4c0.6,0.3,1.4-0.2,1.3-0.9L170.9,54.5z"/>
							</defs>
							<clipPath id="XMLID_515_">
								<use xlink:href="#XMLID_431_"  style="overflow:visible;"/>
							</clipPath>
							<polygon id="XMLID_432_" class="st52" points="162.5,63.2 163.7,64.2 162.5,64.2 							"/>
							<polygon id="XMLID_433_" class="st53" points="162.5,62 165.2,64.2 163.7,64.2 162.5,63.2 							"/>
							<polygon id="XMLID_434_" class="st54" points="162.5,60.8 166.7,64.2 165.2,64.2 162.5,62 							"/>
							<polygon id="XMLID_435_" class="st55" points="162.5,59.7 168.2,64.2 166.7,64.2 162.5,60.8 							"/>
							<polygon id="XMLID_436_" class="st56" points="162.5,58.5 169.6,64.2 168.2,64.2 162.5,59.7 							"/>
							<polygon id="XMLID_437_" class="st57" points="162.5,57.3 171.1,64.2 169.6,64.2 162.5,58.5 							"/>
							<polygon id="XMLID_438_" class="st58" points="162.5,56.2 171.7,63.4 171.7,64.2 171.1,64.2 162.5,57.3 							"/>
							<polygon id="XMLID_439_" class="st59" points="162.5,55 171.7,62.3 171.7,63.4 162.5,56.2 							"/>
							<polygon id="XMLID_440_" class="st60" points="162.5,53.8 171.7,61.1 171.7,62.3 162.5,55 							"/>
							<polygon id="XMLID_441_" class="st61" points="162.5,52.7 171.7,59.9 171.7,61.1 162.5,53.8 							"/>
							<polygon id="XMLID_442_" class="st62" points="163.7,52.5 171.7,58.8 171.7,59.9 162.5,52.7 162.5,52.5 							"/>
							<polygon id="XMLID_443_" class="st63" points="165.2,52.5 171.7,57.6 171.7,58.8 163.7,52.5 							"/>
							<polygon id="XMLID_444_" class="st64" points="166.7,52.5 171.7,56.4 171.7,57.6 165.2,52.5 							"/>
							<polygon id="XMLID_445_" class="st65" points="168.1,52.5 171.7,55.3 171.7,56.4 166.7,52.5 							"/>
							<polygon id="XMLID_446_" class="st66" points="169.6,52.5 171.7,54.1 171.7,55.3 168.1,52.5 							"/>
							<polygon id="XMLID_447_" class="st67" points="171.1,52.5 171.7,52.9 171.7,54.1 169.6,52.5 							"/>
							<polygon id="XMLID_448_" class="st68" points="171.7,52.9 171.1,52.5 171.7,52.5 							"/>
						</g>
					</g>
					<g id="XMLID_2707_">
						<g id="XMLID_409_">
							<defs>
								<path id="XMLID_410_" d="M154,57.7c-0.4-0.3-0.9-0.3-1.3,0.1L149,62c-0.3,0.3-0.3,0.7-0.1,1.1l4.2,7.2
									c0.4,0.6,1.3,0.6,1.6-0.1l3.6-7.6c0.2-0.4,0.1-0.8-0.2-1.1L154,57.7z"/>
							</defs>
							<clipPath id="XMLID_516_">
								<use xlink:href="#XMLID_410_"  style="overflow:visible;"/>
							</clipPath>
							<polygon id="XMLID_411_" class="st69" points="148.7,69.9 150,70.9 148.7,70.9 							"/>
							<polygon id="XMLID_412_" class="st70" points="148.7,68.7 151.5,70.9 150,70.9 148.7,69.9 							"/>
							<polygon id="XMLID_413_" class="st71" points="148.7,67.6 153,70.9 151.5,70.9 148.7,68.7 							"/>
							<polygon id="XMLID_414_" class="st72" points="148.7,66.4 154.5,70.9 153,70.9 148.7,67.6 							"/>
							<polygon id="XMLID_415_" class="st73" points="148.7,65.2 156,70.9 154.5,70.9 148.7,66.4 							"/>
							<polygon id="XMLID_416_" class="st74" points="148.7,64 157.1,70.7 156.9,70.9 156,70.9 148.7,65.2 							"/>
							<polygon id="XMLID_417_" class="st75" points="148.7,62.8 157.7,69.9 157.1,70.7 148.7,64 							"/>
							<polygon id="XMLID_418_" class="st76" points="148.7,61.7 158.3,69.2 157.7,69.9 148.7,62.8 							"/>
							<polygon id="XMLID_419_" class="st77" points="148.7,60.5 158.5,68.2 158.5,68.9 158.3,69.2 148.7,61.7 							"/>
							<polygon id="XMLID_420_" class="st78" points="148.7,59.3 158.5,67 158.5,68.2 148.7,60.5 							"/>
							<polygon id="XMLID_421_" class="st79" points="148.7,59.1 149.2,58.5 158.5,65.8 158.5,67 148.7,59.3 							"/>
							<polygon id="XMLID_422_" class="st80" points="149.2,58.5 149.8,57.8 158.5,64.6 158.5,65.8 							"/>
							<polygon id="XMLID_423_" class="st81" points="149.8,57.8 150,57.4 150.8,57.4 158.5,63.5 158.5,64.6 							"/>
							<polygon id="XMLID_424_" class="st82" points="152.3,57.4 158.5,62.3 158.5,63.5 150.8,57.4 							"/>
							<polygon id="XMLID_425_" class="st83" points="153.8,57.4 158.5,61.1 158.5,62.3 152.3,57.4 							"/>
							<polygon id="XMLID_426_" class="st84" points="155.3,57.4 158.5,59.9 158.5,61.1 153.8,57.4 							"/>
							<polygon id="XMLID_427_" class="st85" points="156.8,57.4 158.5,58.7 158.5,59.9 155.3,57.4 							"/>
							<polygon id="XMLID_428_" class="st86" points="158.3,57.4 158.5,57.6 158.5,58.7 156.8,57.4 							"/>
							<polygon id="XMLID_429_" class="st87" points="158.5,57.6 158.3,57.4 158.5,57.4 							"/>
						</g>
					</g>
					<g id="XMLID_2706_">
						<g id="XMLID_390_">
							<defs>
								<path id="XMLID_391_" d="M142.2,56.5c-0.1-0.5-0.6-0.8-1.1-0.6l-5.3,1.7c-0.4,0.1-0.6,0.5-0.6,0.9l0.1,8.4
									c0,0.7,0.8,1.2,1.4,0.8l6.9-4.7c0.3-0.2,0.5-0.6,0.4-1L142.2,56.5z"/>
							</defs>
							<clipPath id="XMLID_517_">
								<use xlink:href="#XMLID_391_"  style="overflow:visible;"/>
							</clipPath>
							<polygon id="XMLID_392_" class="st88" points="135.1,67.1 136.3,68 135.1,68 							"/>
							<polygon id="XMLID_393_" class="st89" points="135.1,66 137.8,68 136.3,68 135.1,67.1 							"/>
							<polygon id="XMLID_394_" class="st90" points="135.1,64.8 139.2,68 137.8,68 135.1,66 							"/>
							<polygon id="XMLID_395_" class="st91" points="135.1,63.6 140.7,68 139.2,68 135.1,64.8 							"/>
							<polygon id="XMLID_396_" class="st92" points="135.1,62.4 142.2,68 142.1,68 140.7,68 135.1,63.6 							"/>
							<polygon id="XMLID_397_" class="st93" points="135.1,61.3 142.7,67.3 142.2,68 135.1,62.4 							"/>
							<polygon id="XMLID_398_" class="st94" points="135.1,60.1 143.3,66.6 142.7,67.3 135.1,61.3 							"/>
							<polygon id="XMLID_399_" class="st95" points="135.1,58.9 143.9,65.8 143.3,66.6 135.1,60.1 							"/>
							<polygon id="XMLID_400_" class="st96" points="135.1,57.8 143.9,64.7 143.9,65.8 143.9,65.8 135.1,58.9 							"/>
							<polygon id="XMLID_401_" class="st97" points="135.1,56.6 143.9,63.5 143.9,64.7 135.1,57.8 							"/>
							<polygon id="XMLID_402_" class="st98" points="135.5,55.7 143.9,62.3 143.9,63.5 135.1,56.6 135.1,55.7 							"/>
							<polygon id="XMLID_403_" class="st99" points="137,55.7 143.9,61.2 143.9,62.3 135.5,55.7 							"/>
							<polygon id="XMLID_404_" class="st100" points="138.5,55.7 143.9,60 143.9,61.2 137,55.7 							"/>
							<polygon id="XMLID_405_" class="st101" points="140,55.7 143.9,58.8 143.9,60 138.5,55.7 							"/>
							<polygon id="XMLID_406_" class="st102" points="141.5,55.7 143.9,57.7 143.9,58.8 140,55.7 							"/>
							<polygon id="XMLID_407_" class="st103" points="143,55.7 143.9,56.5 143.9,57.7 141.5,55.7 							"/>
							<polygon id="XMLID_408_" class="st104" points="143.9,56.5 143,55.7 143.9,55.7 							"/>
						</g>
					</g>
					<g id="XMLID_2705_">
						<g id="XMLID_372_">
							<defs>
								<path id="XMLID_373_" d="M132.2,47.9l-5.4-1.2c-0.4-0.1-0.8,0.1-1,0.4l-4,7.4c-0.3,0.6,0.1,1.4,0.8,1.4l8.2-0.6
									c0.4,0,0.7-0.3,0.8-0.7l1.2-5.5C133,48.5,132.7,48,132.2,47.9z"/>
							</defs>
							<clipPath id="XMLID_518_">
								<use xlink:href="#XMLID_373_"  style="overflow:visible;"/>
							</clipPath>
							<polygon id="XMLID_374_" class="st105" points="121.4,54.9 122.7,55.9 121.4,55.9 							"/>
							<polygon id="XMLID_375_" class="st106" points="121.4,53.8 124.2,55.9 122.7,55.9 121.4,54.9 							"/>
							<polygon id="XMLID_376_" class="st107" points="121.4,52.6 125.6,55.9 124.2,55.9 121.4,53.8 							"/>
							<polygon id="XMLID_377_" class="st108" points="121.4,51.4 127.1,55.9 125.6,55.9 121.4,52.6 							"/>
							<polygon id="XMLID_378_" class="st109" points="121.4,50.3 128.6,55.9 127.1,55.9 121.4,51.4 							"/>
							<polygon id="XMLID_379_" class="st110" points="121.4,49.3 121.5,49.2 130.1,55.9 128.6,55.9 121.4,50.3 							"/>
							<polygon id="XMLID_380_" class="st111" points="121.5,49.2 122.1,48.5 131.6,55.9 130.1,55.9 							"/>
							<polygon id="XMLID_381_" class="st112" points="122.1,48.5 122.7,47.7 133,55.9 133,55.9 131.6,55.9 							"/>
							<polygon id="XMLID_382_" class="st113" points="122.7,47.7 123.2,47 133,54.7 133,55.9 							"/>
							<polygon id="XMLID_383_" class="st114" points="123.2,47 123.6,46.6 124.2,46.6 133,53.5 133,54.7 							"/>
							<polygon id="XMLID_384_" class="st115" points="125.7,46.6 133,52.4 133,53.5 124.2,46.6 							"/>
							<polygon id="XMLID_385_" class="st116" points="127.1,46.6 133,51.2 133,52.4 125.7,46.6 							"/>
							<polygon id="XMLID_386_" class="st117" points="128.6,46.6 133,50 133,51.2 127.1,46.6 							"/>
							<polygon id="XMLID_387_" class="st118" points="130.1,46.6 133,48.9 133,50 128.6,46.6 							"/>
							<polygon id="XMLID_388_" class="st119" points="131.6,46.6 133,47.7 133,48.9 130.1,46.6 							"/>
							<polygon id="XMLID_389_" class="st120" points="133,47.7 131.6,46.6 133,46.6 							"/>
						</g>
					</g>
					<g id="XMLID_2704_">
						<g id="XMLID_353_">
							<defs>
								<path id="XMLID_354_" d="M124.3,27.1c0.2,0.3,0.6,0.5,1,0.3l5.2-1.9c0.5-0.2,0.7-0.7,0.6-1.2l-1.8-5.4
									c-0.1-0.4-0.5-0.6-0.9-0.6l-8.2,0.4c-0.7,0-1.1,0.9-0.7,1.5L124.3,27.1z"/>
							</defs>
							<clipPath id="XMLID_519_">
								<use xlink:href="#XMLID_354_"  style="overflow:visible;"/>
							</clipPath>
							<polygon id="XMLID_355_" class="st121" points="119,27.1 119.6,27.5 119,27.5 							"/>
							<polygon id="XMLID_356_" class="st122" points="119,25.9 121.1,27.5 119.6,27.5 119,27.1 							"/>
							<polygon id="XMLID_357_" class="st123" points="119,24.7 122.6,27.5 121.1,27.5 119,25.9 							"/>
							<polygon id="XMLID_358_" class="st124" points="119,23.6 124.1,27.5 122.6,27.5 119,24.7 							"/>
							<polygon id="XMLID_359_" class="st125" points="119,22.4 125.6,27.5 124.1,27.5 119,23.6 							"/>
							<polygon id="XMLID_360_" class="st126" points="119,21.2 127.1,27.5 125.6,27.5 119,22.4 							"/>
							<polygon id="XMLID_361_" class="st127" points="119,20 128.6,27.5 127.1,27.5 119,21.2 							"/>
							<polygon id="XMLID_362_" class="st128" points="119,18.9 130.1,27.5 128.6,27.5 119,20 							"/>
							<polygon id="XMLID_363_" class="st129" points="119.9,18.4 131.2,27.3 131.2,27.5 130.1,27.5 119,18.9 119,18.4 							"/>
							<polygon id="XMLID_364_" class="st130" points="121.4,18.4 131.2,26.1 131.2,27.3 119.9,18.4 							"/>
							<polygon id="XMLID_365_" class="st131" points="122.9,18.4 131.2,25 131.2,26.1 121.4,18.4 							"/>
							<polygon id="XMLID_366_" class="st132" points="124.4,18.4 131.2,23.8 131.2,25 122.9,18.4 							"/>
							<polygon id="XMLID_367_" class="st133" points="125.9,18.4 131.2,22.6 131.2,23.8 124.4,18.4 							"/>
							<polygon id="XMLID_368_" class="st134" points="127.4,18.4 131.2,21.4 131.2,22.6 125.9,18.4 							"/>
							<polygon id="XMLID_369_" class="st135" points="128.8,18.4 131.2,20.3 131.2,21.4 127.4,18.4 							"/>
							<polygon id="XMLID_370_" class="st136" points="130.3,18.4 131.2,19.1 131.2,20.3 128.8,18.4 							"/>
							<polygon id="XMLID_371_" class="st137" points="131.2,19.1 130.3,18.4 131.2,18.4 							"/>
						</g>
					</g>
					<g id="XMLID_2703_">
						<g id="XMLID_332_">
							<defs>
								<path id="XMLID_333_" d="M124.8,41.7l3.6-4.3c0.3-0.4,0.3-1-0.1-1.3l-4.2-3.7c-0.3-0.3-0.7-0.3-1.1-0.1l-6.9,4.6
									c-0.6,0.4-0.5,1.3,0.1,1.6l7.5,3.4C124.1,42.1,124.5,42,124.8,41.7z"/>
							</defs>
							<clipPath id="XMLID_520_">
								<use xlink:href="#XMLID_333_"  style="overflow:visible;"/>
							</clipPath>
							<polygon id="XMLID_334_" class="st138" points="115.5,41.8 115.9,42.1 115.5,42.1 							"/>
							<polygon id="XMLID_335_" class="st139" points="115.5,40.6 117.3,42.1 115.9,42.1 115.5,41.8 							"/>
							<polygon id="XMLID_336_" class="st140" points="115.5,39.5 118.8,42.1 117.3,42.1 115.5,40.6 							"/>
							<polygon id="XMLID_337_" class="st141" points="115.5,38.3 120.3,42.1 118.8,42.1 115.5,39.5 							"/>
							<polygon id="XMLID_338_" class="st142" points="115.5,37.1 121.8,42.1 120.3,42.1 115.5,38.3 							"/>
							<polygon id="XMLID_339_" class="st143" points="115.5,36 123.3,42.1 121.8,42.1 115.5,37.1 							"/>
							<polygon id="XMLID_340_" class="st144" points="115.5,34.8 124.7,42.1 123.3,42.1 115.5,36 							"/>
							<polygon id="XMLID_341_" class="st145" points="115.5,34.1 115.7,33.8 126.2,42.1 124.7,42.1 115.5,34.8 							"/>
							<polygon id="XMLID_342_" class="st146" points="115.7,33.8 116.3,33.1 127.4,41.9 127.2,42.1 126.2,42.1 							"/>
							
								<rect id="XMLID_343_" x="121.7" y="30" transform="matrix(0.6188 -0.7856 0.7856 0.6188 17.396 110.0768)" class="st147" width="0.9" height="14.2"/>
							<polygon id="XMLID_344_" class="st148" points="116.8,32.4 117,32.1 118,32.1 128.5,40.4 128,41.1 							"/>
							<polygon id="XMLID_345_" class="st149" points="119.4,32.1 128.7,39.4 128.7,40.2 128.5,40.4 118,32.1 							"/>
							<polygon id="XMLID_346_" class="st150" points="120.9,32.1 128.7,38.2 128.7,39.4 119.4,32.1 							"/>
							<polygon id="XMLID_347_" class="st151" points="122.4,32.1 128.7,37.1 128.7,38.2 120.9,32.1 							"/>
							<polygon id="XMLID_348_" class="st152" points="123.9,32.1 128.7,35.9 128.7,37.1 122.4,32.1 							"/>
							<polygon id="XMLID_349_" class="st153" points="125.4,32.1 128.7,34.7 128.7,35.9 123.9,32.1 							"/>
							<polygon id="XMLID_350_" class="st154" points="126.9,32.1 128.7,33.6 128.7,34.7 125.4,32.1 							"/>
							<polygon id="XMLID_351_" class="st155" points="128.3,32.1 128.7,32.4 128.7,33.6 126.9,32.1 							"/>
							<polygon id="XMLID_352_" class="st156" points="128.7,32.4 128.3,32.1 128.7,32.1 							"/>
						</g>
					</g>
					<g id="XMLID_2702_">
						<g id="XMLID_234_">
							<defs>
								<path id="XMLID_313_" d="M135.2,14.7l5.3,1.7c0.5,0.2,1-0.1,1.1-0.6l1.7-5.4c0.1-0.4,0-0.8-0.4-1l-6.8-4.7
									c-0.6-0.4-1.4,0-1.4,0.7l-0.1,8.4C134.6,14.2,134.9,14.6,135.2,14.7z"/>
							</defs>
							<clipPath id="XMLID_521_">
								<use xlink:href="#XMLID_313_"  style="overflow:visible;"/>
							</clipPath>
							<polygon id="XMLID_314_" class="st157" points="134.6,15.9 135.4,16.6 134.6,16.6 							"/>
							<polygon id="XMLID_315_" class="st158" points="134.6,14.8 136.9,16.6 135.4,16.6 134.6,15.9 							"/>
							<polygon id="XMLID_316_" class="st159" points="134.6,13.6 138.4,16.6 136.9,16.6 134.6,14.8 							"/>
							<polygon id="XMLID_317_" class="st160" points="134.6,12.4 139.8,16.6 138.4,16.6 134.6,13.6 							"/>
							<polygon id="XMLID_318_" class="st161" points="134.6,11.3 141.3,16.6 139.8,16.6 134.6,12.4 							"/>
							<polygon id="XMLID_319_" class="st162" points="134.6,10.1 142.8,16.6 141.3,16.6 134.6,11.3 							"/>
							<polygon id="XMLID_320_" class="st163" points="134.6,8.9 143.4,15.9 143.4,16.6 142.8,16.6 134.6,10.1 							"/>
							<polygon id="XMLID_321_" class="st164" points="134.6,7.8 143.4,14.7 143.4,15.9 134.6,8.9 							"/>
							<polygon id="XMLID_322_" class="st165" points="134.6,6.6 143.4,13.6 143.4,14.7 134.6,7.8 							"/>
							<polygon id="XMLID_323_" class="st166" points="134.6,5.4 143.4,12.4 143.4,13.6 134.6,6.6 							"/>
							<polygon id="XMLID_324_" class="st167" points="134.6,4.3 143.4,11.2 143.4,12.4 134.6,5.4 							"/>
							<polygon id="XMLID_325_" class="st168" points="136,4.2 143.4,10.1 143.4,11.2 134.6,4.3 134.6,4.2 							"/>
							<polygon id="XMLID_326_" class="st169" points="137.5,4.2 143.4,8.9 143.4,10.1 136,4.2 							"/>
							<polygon id="XMLID_327_" class="st170" points="139,4.2 143.4,7.7 143.4,8.9 137.5,4.2 							"/>
							<polygon id="XMLID_328_" class="st171" points="140.5,4.2 143.4,6.6 143.4,7.7 139,4.2 							"/>
							<polygon id="XMLID_329_" class="st172" points="141.9,4.2 143.4,5.4 143.4,6.6 140.5,4.2 							"/>
							<polygon id="XMLID_330_" class="st173" points="143.4,4.2 143.4,4.2 143.4,5.4 141.9,4.2 							"/>
							<polygon id="XMLID_331_" class="st174" points="143.4,4.2 143.4,4.2 143.4,4.2 							"/>
						</g>
					</g>
				</g>
				<g id="XMLID_2700_">
					<g id="XMLID_235_">
						<defs>
							<ellipse id="XMLID_236_" cx="151.6" cy="35.1" rx="18.4" ry="18.9"/>
						</defs>
						<clipPath id="XMLID_522_">
							<use xlink:href="#XMLID_236_"  style="overflow:visible;"/>
						</clipPath>
						<path id="XMLID_237_" class="st175" d="M133.1,16.3V54V16.3z"/>
						<rect id="XMLID_238_" x="133.1" y="16.3" class="st175" width="0.5" height="37.8"/>
						<rect id="XMLID_239_" x="133.6" y="16.3" class="st176" width="0.5" height="37.8"/>
						<rect id="XMLID_240_" x="134.1" y="16.3" class="st177" width="0.5" height="37.8"/>
						<rect id="XMLID_241_" x="134.6" y="16.3" class="st178" width="0.5" height="37.8"/>
						<rect id="XMLID_242_" x="135.1" y="16.3" class="st179" width="0.5" height="37.8"/>
						<rect id="XMLID_243_" x="135.6" y="16.3" class="st180" width="0.5" height="37.8"/>
						<rect id="XMLID_244_" x="136.1" y="16.3" class="st181" width="0.5" height="37.8"/>
						<rect id="XMLID_245_" x="136.6" y="16.3" class="st182" width="0.5" height="37.8"/>
						<rect id="XMLID_246_" x="137.1" y="16.3" class="st183" width="0.5" height="37.8"/>
						<rect id="XMLID_247_" x="137.6" y="16.3" class="st184" width="0.5" height="37.8"/>
						<rect id="XMLID_248_" x="138.1" y="16.3" class="st185" width="0.5" height="37.8"/>
						<rect id="XMLID_249_" x="138.6" y="16.3" class="st186" width="0.5" height="37.8"/>
						<rect id="XMLID_250_" x="139.1" y="16.3" class="st187" width="0.5" height="37.8"/>
						<rect id="XMLID_251_" x="139.6" y="16.3" class="st188" width="0.5" height="37.8"/>
						<rect id="XMLID_252_" x="140.1" y="16.3" class="st189" width="0.5" height="37.8"/>
						<rect id="XMLID_253_" x="140.6" y="16.3" class="st190" width="0.5" height="37.8"/>
						<rect id="XMLID_254_" x="141.1" y="16.3" class="st191" width="0.5" height="37.8"/>
						<rect id="XMLID_255_" x="141.6" y="16.3" class="st192" width="0.5" height="37.8"/>
						<rect id="XMLID_256_" x="142.1" y="16.3" class="st193" width="0.5" height="37.8"/>
						<rect id="XMLID_257_" x="142.6" y="16.3" class="st194" width="0.5" height="37.8"/>
						<rect id="XMLID_258_" x="143.1" y="16.3" class="st195" width="0.5" height="37.8"/>
						<rect id="XMLID_259_" x="143.6" y="16.3" class="st196" width="0.5" height="37.8"/>
						<rect id="XMLID_260_" x="144.1" y="16.3" class="st197" width="0.5" height="37.8"/>
						<rect id="XMLID_261_" x="144.6" y="16.3" class="st198" width="0.5" height="37.8"/>
						<rect id="XMLID_262_" x="145.1" y="16.3" class="st199" width="0.5" height="37.8"/>
						<rect id="XMLID_263_" x="145.6" y="16.3" class="st200" width="0.5" height="37.8"/>
						<rect id="XMLID_264_" x="146.1" y="16.3" class="st201" width="0.5" height="37.8"/>
						<rect id="XMLID_265_" x="146.6" y="16.3" class="st202" width="0.5" height="37.8"/>
						<rect id="XMLID_266_" x="147.1" y="16.3" class="st203" width="0.5" height="37.8"/>
						<rect id="XMLID_267_" x="147.6" y="16.3" class="st204" width="0.5" height="37.8"/>
						<rect id="XMLID_268_" x="148.1" y="16.3" class="st205" width="0.5" height="37.8"/>
						<rect id="XMLID_269_" x="148.6" y="16.3" class="st206" width="0.5" height="37.8"/>
						<rect id="XMLID_270_" x="149.1" y="16.3" class="st207" width="0.5" height="37.8"/>
						<rect id="XMLID_271_" x="149.6" y="16.3" class="st208" width="0.5" height="37.8"/>
						<rect id="XMLID_272_" x="150.1" y="16.3" class="st209" width="0.5" height="37.8"/>
						<rect id="XMLID_273_" x="150.6" y="16.3" class="st210" width="0.5" height="37.8"/>
						<rect id="XMLID_274_" x="151.1" y="16.3" class="st211" width="0.5" height="37.8"/>
						<rect id="XMLID_275_" x="151.6" y="16.3" class="st212" width="0.5" height="37.8"/>
						<rect id="XMLID_276_" x="152.1" y="16.3" class="st213" width="0.5" height="37.8"/>
						<rect id="XMLID_277_" x="152.6" y="16.3" class="st214" width="0.5" height="37.8"/>
						<rect id="XMLID_278_" x="153.1" y="16.3" class="st215" width="0.5" height="37.8"/>
						<rect id="XMLID_279_" x="153.6" y="16.3" class="st216" width="0.5" height="37.8"/>
						<rect id="XMLID_280_" x="154.1" y="16.3" class="st217" width="0.5" height="37.8"/>
						<rect id="XMLID_281_" x="154.6" y="16.3" class="st218" width="0.5" height="37.8"/>
						<rect id="XMLID_282_" x="155.1" y="16.3" class="st219" width="0.5" height="37.8"/>
						<rect id="XMLID_283_" x="155.6" y="16.3" class="st220" width="0.5" height="37.8"/>
						<rect id="XMLID_284_" x="156" y="16.3" class="st221" width="0.5" height="37.8"/>
						<rect id="XMLID_285_" x="156.5" y="16.3" class="st222" width="0.5" height="37.8"/>
						<rect id="XMLID_286_" x="157" y="16.3" class="st223" width="0.5" height="37.8"/>
						<rect id="XMLID_287_" x="157.5" y="16.3" class="st224" width="0.5" height="37.8"/>
						<rect id="XMLID_288_" x="158" y="16.3" class="st225" width="0.5" height="37.8"/>
						<rect id="XMLID_289_" x="158.5" y="16.3" class="st226" width="0.5" height="37.8"/>
						<rect id="XMLID_290_" x="159" y="16.3" class="st227" width="0.5" height="37.8"/>
						<rect id="XMLID_291_" x="159.5" y="16.3" class="st228" width="0.5" height="37.8"/>
						<rect id="XMLID_292_" x="160" y="16.3" class="st229" width="0.5" height="37.8"/>
						<rect id="XMLID_293_" x="160.5" y="16.3" class="st230" width="0.5" height="37.8"/>
						<rect id="XMLID_294_" x="161" y="16.3" class="st231" width="0.5" height="37.8"/>
						<rect id="XMLID_295_" x="161.5" y="16.3" class="st232" width="0.5" height="37.8"/>
						<rect id="XMLID_296_" x="162" y="16.3" class="st233" width="0.5" height="37.8"/>
						<rect id="XMLID_297_" x="162.5" y="16.3" class="st234" width="0.5" height="37.8"/>
						<rect id="XMLID_298_" x="163" y="16.3" class="st235" width="0.5" height="37.8"/>
						<rect id="XMLID_299_" x="163.5" y="16.3" class="st236" width="0.5" height="37.8"/>
						<rect id="XMLID_300_" x="164" y="16.3" class="st237" width="0.5" height="37.8"/>
						<rect id="XMLID_301_" x="164.5" y="16.3" class="st238" width="0.5" height="37.8"/>
						<rect id="XMLID_302_" x="165" y="16.3" class="st239" width="0.5" height="37.8"/>
						<rect id="XMLID_303_" x="165.5" y="16.3" class="st240" width="0.5" height="37.8"/>
						<rect id="XMLID_304_" x="166" y="16.3" class="st241" width="0.5" height="37.8"/>
						<rect id="XMLID_305_" x="166.5" y="16.3" class="st242" width="0.5" height="37.8"/>
						<rect id="XMLID_306_" x="167" y="16.3" class="st243" width="0.5" height="37.8"/>
						<rect id="XMLID_307_" x="167.5" y="16.3" class="st244" width="0.5" height="37.8"/>
						<rect id="XMLID_308_" x="168" y="16.3" class="st245" width="0.5" height="37.8"/>
						<rect id="XMLID_309_" x="168.5" y="16.3" class="st246" width="0.5" height="37.8"/>
						<rect id="XMLID_310_" x="169" y="16.3" class="st247" width="0.5" height="37.8"/>
						<rect id="XMLID_311_" x="169.5" y="16.3" class="st248" width="0.5" height="37.8"/>
						<path id="XMLID_312_" class="st248" d="M170,54V16.3V54z"/>
					</g>
					<path id="XMLID_189_" d="M151.6,54.5c-10.4,0-18.9-8.7-18.9-19.3s8.5-19.3,18.9-19.3c10.4,0,18.9,8.7,18.9,19.3
						S162,54.5,151.6,54.5z M151.6,16.7c-9.9,0-18,8.3-18,18.4c0,10.2,8.1,18.4,18,18.4c9.9,0,18-8.3,18-18.4
						C169.5,25,161.5,16.7,151.6,16.7z"/>
				</g>
				<g id="XMLID_2699_">
					<g id="XMLID_190_">
						<defs>
							<ellipse id="XMLID_191_" cx="151.6" cy="35.1" rx="11.9" ry="12.1"/>
						</defs>
						<clipPath id="XMLID_523_">
							<use xlink:href="#XMLID_191_"  style="overflow:visible;"/>
						</clipPath>
						<polygon id="XMLID_192_" class="st249" points="139.6,46.4 140.6,47.2 139.6,47.2 						"/>
						<polygon id="XMLID_193_" class="st250" points="139.6,45.3 141.9,47.2 140.6,47.2 139.6,46.4 						"/>
						<polygon id="XMLID_194_" class="st251" points="139.6,44.2 143.3,47.2 141.9,47.2 139.6,45.3 						"/>
						<polygon id="XMLID_195_" class="st252" points="139.6,43.1 144.7,47.2 143.3,47.2 139.6,44.2 						"/>
						<polygon id="XMLID_196_" class="st253" points="139.6,41.9 146.1,47.2 144.7,47.2 139.6,43.1 						"/>
						<polygon id="XMLID_197_" class="st254" points="139.6,40.8 147.4,47.2 146.1,47.2 139.6,41.9 						"/>
						<polygon id="XMLID_198_" class="st255" points="139.6,39.7 148.8,47.2 147.4,47.2 139.6,40.8 						"/>
						<polygon id="XMLID_199_" class="st256" points="139.6,38.6 150.2,47.2 148.8,47.2 139.6,39.7 						"/>
						<polygon id="XMLID_200_" class="st257" points="139.6,37.4 151.6,47.2 150.2,47.2 139.6,38.6 						"/>
						<polygon id="XMLID_201_" class="st258" points="139.6,36.3 152.9,47.2 151.6,47.2 139.6,37.4 						"/>
						<polygon id="XMLID_202_" class="st259" points="139.6,35.2 154.3,47.2 152.9,47.2 139.6,36.3 						"/>
						<polygon id="XMLID_203_" class="st260" points="139.6,34.1 155.7,47.2 154.3,47.2 139.6,35.2 						"/>
						<polygon id="XMLID_204_" class="st261" points="139.6,32.9 157.1,47.2 155.7,47.2 139.6,34.1 						"/>
						<polygon id="XMLID_205_" class="st262" points="139.6,31.8 158.4,47.2 157.1,47.2 139.6,32.9 						"/>
						<polygon id="XMLID_206_" class="st263" points="139.6,30.7 159.8,47.2 158.4,47.2 139.6,31.8 						"/>
						<polygon id="XMLID_207_" class="st264" points="139.6,29.6 161.2,47.2 159.8,47.2 139.6,30.7 						"/>
						<polygon id="XMLID_208_" class="st265" points="139.6,28.4 162,46.8 161.7,47.2 161.2,47.2 139.6,29.6 						"/>
						<polygon id="XMLID_209_" class="st266" points="139.6,27.3 162.6,46.1 162,46.8 139.6,28.4 						"/>
						<polygon id="XMLID_210_" class="st267" points="139.6,26.2 163.1,45.4 162.6,46.1 139.6,27.3 						"/>
						<polygon id="XMLID_211_" class="st268" points="139.6,25.3 139.8,25.2 163.5,44.6 163.5,45 163.1,45.4 139.6,26.2 						"/>
						<polygon id="XMLID_212_" class="st269" points="139.8,25.2 140.3,24.5 163.5,43.5 163.5,44.6 						"/>
						<polygon id="XMLID_213_" class="st270" points="140.3,24.5 140.9,23.8 163.5,42.4 163.5,43.5 						"/>
						<polygon id="XMLID_214_" class="st271" points="140.9,23.8 141.4,23.1 163.5,41.3 163.5,42.4 						"/>
						<polygon id="XMLID_215_" class="st272" points="141.4,23.1 141.5,23.1 142.7,23.1 163.5,40.1 163.5,41.3 						"/>
						<polygon id="XMLID_216_" class="st273" points="144.1,23.1 163.5,39 163.5,40.1 142.7,23.1 						"/>
						<polygon id="XMLID_217_" class="st274" points="145.4,23.1 163.5,37.9 163.5,39 144.1,23.1 						"/>
						<polygon id="XMLID_218_" class="st275" points="146.8,23.1 163.5,36.7 163.5,37.9 145.4,23.1 						"/>
						<polygon id="XMLID_219_" class="st276" points="148.2,23.1 163.5,35.6 163.5,36.7 146.8,23.1 						"/>
						<polygon id="XMLID_220_" class="st277" points="149.6,23.1 163.5,34.5 163.5,35.6 148.2,23.1 						"/>
						<polygon id="XMLID_221_" class="st278" points="150.9,23.1 163.5,33.4 163.5,34.5 149.6,23.1 						"/>
						<polygon id="XMLID_222_" class="st279" points="152.3,23.1 163.5,32.2 163.5,33.4 150.9,23.1 						"/>
						<polygon id="XMLID_223_" class="st280" points="153.7,23.1 163.5,31.1 163.5,32.2 152.3,23.1 						"/>
						<polygon id="XMLID_224_" class="st281" points="155.1,23.1 163.5,30 163.5,31.1 153.7,23.1 						"/>
						<polygon id="XMLID_225_" class="st282" points="156.4,23.1 163.5,28.9 163.5,30 155.1,23.1 						"/>
						<polygon id="XMLID_226_" class="st283" points="157.8,23.1 163.5,27.7 163.5,28.9 156.4,23.1 						"/>
						<polygon id="XMLID_227_" class="st284" points="159.2,23.1 163.5,26.6 163.5,27.7 157.8,23.1 						"/>
						<polygon id="XMLID_228_" class="st285" points="160.6,23.1 163.5,25.5 163.5,26.6 159.2,23.1 						"/>
						<polygon id="XMLID_229_" class="st286" points="161.9,23.1 163.5,24.4 163.5,25.5 160.6,23.1 						"/>
						<polygon id="XMLID_230_" class="st287" points="163.3,23.1 163.5,23.2 163.5,24.4 161.9,23.1 						"/>
						<polygon id="XMLID_231_" class="st288" points="163.5,23.2 163.3,23.1 163.5,23.1 						"/>
					</g>
					<path id="XMLID_186_" d="M151.6,47.7c-6.8,0-12.4-5.6-12.4-12.5c0-6.9,5.6-12.5,12.4-12.5S164,28.2,164,35.1
						C164,42.1,158.4,47.7,151.6,47.7z M151.6,23.5c-6.3,0-11.5,5.2-11.5,11.6c0,6.4,5.2,11.6,11.5,11.6s11.5-5.2,11.5-11.6
						C163.1,28.7,157.9,23.5,151.6,23.5z"/>
				</g>
				<g id="XMLID_2687_">
					<g id="XMLID_2698_">
						<path id="XMLID_183_" d="M156.7,13.9c-0.1,0-0.2,0-0.3,0c-0.4-0.1-0.7-0.3-0.9-0.6l0,0l-3-4.8c-0.3-0.5-0.3-1.2,0.1-1.6
							l5.3-6.4c0.3-0.4,0.8-0.6,1.3-0.5c0.5,0.1,0.9,0.5,1,1l2.3,8.1c0.2,0.6-0.1,1.2-0.6,1.5l-4.7,3.1
							C157.2,13.9,156.9,13.9,156.7,13.9z M156.3,12.8c0.1,0.1,0.2,0.2,0.3,0.2c0.1,0,0.2,0,0.3-0.1l4.7-3.1
							c0.2-0.1,0.2-0.3,0.2-0.5l-2.3-8.1c0-0.2-0.2-0.3-0.3-0.3c-0.1,0-0.3,0-0.4,0.1l-5.3,6.4c-0.1,0.2-0.1,0.4,0,0.6L156.3,12.8z"
							/>
					</g>
					<g id="XMLID_2697_">
						<path id="XMLID_180_" d="M174,20.9c0,0-0.1,0-0.1,0l-5.5-0.4c-0.7-0.1-1.3-0.7-1.2-1.5l0.4-5.7c0-0.6,0.5-1.1,1.1-1.2l8-1.8
							c0.5-0.1,1,0.1,1.3,0.4c0.3,0.4,0.4,0.9,0.3,1.4l-2.9,7.9C175,20.5,174.5,20.9,174,20.9z M176.9,11.2
							C176.9,11.2,176.9,11.2,176.9,11.2l-8.1,1.8c-0.2,0-0.3,0.2-0.4,0.4l-0.4,5.7c0,0.3,0.2,0.5,0.4,0.5l5.5,0.4
							c0.2,0,0.4-0.1,0.4-0.3l2.9-7.9c0.1-0.2,0-0.3-0.1-0.5C177.2,11.3,177.1,11.2,176.9,11.2z"/>
					</g>
					<g id="XMLID_2696_">
						<path id="XMLID_177_" d="M178.3,35.4c-0.3,0-0.6-0.1-0.9-0.3l-4.3-3.6c-0.6-0.5-0.7-1.3-0.2-1.9l3.5-4.4
							c0.4-0.5,1-0.6,1.6-0.4l7.6,3.2c0.5,0.2,0.8,0.6,0.8,1.1c0.1,0.5-0.2,1-0.6,1.3l-6.8,4.7C178.8,35.3,178.5,35.4,178.3,35.4z
							 M177.5,25.5c-0.1,0-0.3,0.1-0.3,0.2l-3.5,4.4c-0.2,0.2-0.1,0.5,0.1,0.7l4.3,3.6c0.1,0.1,0.4,0.1,0.5,0l6.8-4.7
							c0.1-0.1,0.2-0.3,0.2-0.4c0-0.2-0.1-0.3-0.3-0.4l-7.6-3.2C177.6,25.5,177.5,25.5,177.5,25.5z"/>
					</g>
					<g id="XMLID_2695_">
						<path id="XMLID_174_" d="M174.9,49.2c-0.6,0-1.1-0.4-1.3-1l-1.6-5.4c-0.2-0.7,0.2-1.5,0.9-1.7l5.3-1.7c0.6-0.2,1.2,0,1.5,0.5
							l4.6,7c0.3,0.4,0.3,1,0.1,1.4c-0.2,0.4-0.7,0.7-1.2,0.7L174.9,49.2C174.9,49.2,174.9,49.2,174.9,49.2z M173.1,42
							c-0.2,0.1-0.4,0.3-0.3,0.6l1.6,5.4c0.1,0.2,0.3,0.4,0.4,0.3l8.2-0.1c0.2,0,0.3-0.2,0.4-0.2c0.1-0.2,0.1-0.3,0-0.5l-4.6-7
							c-0.1-0.2-0.3-0.2-0.5-0.2L173.1,42z"/>
					</g>
					<g id="XMLID_2694_">
						<path id="XMLID_171_" d="M172.2,63.5c-0.2,0-0.4-0.1-0.6-0.2l-7.3-4c-0.5-0.3-0.8-0.9-0.7-1.5l1.1-5.6
							c0.1-0.4,0.3-0.7,0.6-0.9c0.3-0.2,0.7-0.3,1-0.2l5.4,1.1c0.6,0.1,1,0.6,1.1,1.2l0.7,8.4c0,0.5-0.2,1-0.6,1.3
							C172.7,63.4,172.5,63.5,172.2,63.5z M166,52.1c-0.1,0-0.2,0-0.2,0.1c-0.1,0.1-0.2,0.2-0.2,0.3l-1.1,5.6c0,0.2,0.1,0.4,0.2,0.5
							l7.3,4c0.2,0.1,0.4,0,0.4,0c0.1-0.1,0.2-0.3,0.2-0.4l-0.7-8.4c0-0.2-0.2-0.4-0.4-0.4L166,52.1C166.1,52.1,166.1,52.1,166,52.1
							z"/>
					</g>
					<g id="XMLID_2693_">
						<path id="XMLID_168_" d="M155.4,70.3c-0.5,0-0.9-0.3-1.2-0.7l-4.2-7.2c-0.3-0.5-0.2-1.2,0.2-1.6l3.7-4.2
							c0.2-0.3,0.6-0.4,0.9-0.4c0.4,0,0.7,0.1,1,0.4l4.1,3.8c0.4,0.4,0.6,1.1,0.3,1.6l-3.6,7.6C156.4,70,156,70.3,155.4,70.3
							C155.4,70.3,155.4,70.3,155.4,70.3z M154.9,57C154.9,57,154.9,57,154.9,57c-0.1,0-0.2,0.1-0.3,0.1l-3.7,4.2
							c-0.1,0.2-0.2,0.4-0.1,0.6l4.2,7.2c0.1,0.2,0.3,0.2,0.4,0.2c0.1,0,0.3,0,0.4-0.3l3.6-7.6c0.1-0.2,0-0.4-0.1-0.6l-4.1-3.8
							C155.1,57.1,155,57,154.9,57z"/>
					</g>
					<g id="XMLID_2692_">
						<path id="XMLID_165_" d="M137.6,67.3c-0.2,0-0.4-0.1-0.6-0.2c-0.4-0.2-0.7-0.7-0.7-1.2l-0.1-8.4c0-0.6,0.4-1.1,1-1.3l5.3-1.7
							c0.3-0.1,0.7-0.1,1,0.1c0.3,0.2,0.6,0.5,0.7,0.8l1.6,5.4c0.2,0.6,0,1.2-0.5,1.5l-6.9,4.7C138.1,67.3,137.8,67.3,137.6,67.3z
							 M142.8,55.4c0,0-0.1,0-0.1,0l-5.3,1.7c-0.2,0.1-0.3,0.2-0.3,0.5l0.1,8.4c0,0.2,0.1,0.3,0.2,0.4c0.1,0,0.2,0.1,0.4,0l6.9-4.7
							c0.2-0.1,0.2-0.3,0.2-0.5l-1.6-5.4c0-0.1-0.1-0.2-0.2-0.3C142.9,55.4,142.9,55.4,142.8,55.4z"/>
					</g>
					<g id="XMLID_2691_">
						<path id="XMLID_162_" d="M124,55.4c-0.5,0-0.9-0.2-1.1-0.6c-0.3-0.4-0.3-1,0-1.4l4-7.4c0.3-0.5,0.9-0.8,1.5-0.7l5.4,1.2
							c0.7,0.2,1.2,0.9,1,1.6l-1.2,5.5c-0.1,0.6-0.6,1-1.2,1.1L124,55.4C124.1,55.4,124.1,55.4,124,55.4z M128.1,46.2
							c-0.2,0-0.3,0.1-0.4,0.2l-4,7.4c-0.1,0.2-0.1,0.3,0,0.5c0,0.1,0.2,0.2,0.4,0.2l8.2-0.6c0.2,0,0.4-0.2,0.4-0.4l1.2-5.5l0.4,0.1
							l-0.4-0.1c0.1-0.3-0.1-0.5-0.3-0.6L128.1,46.2C128.1,46.2,128.1,46.2,128.1,46.2z"/>
					</g>
					<g id="XMLID_2690_">
						<path id="XMLID_159_" d="M126.5,27c-0.4,0-0.8-0.2-1.1-0.6l-4.8-6.9c-0.3-0.4-0.3-1-0.1-1.4c0.2-0.5,0.7-0.7,1.2-0.8l8.2-0.4
							c0.6,0,1.1,0.4,1.3,0.9l1.8,5.4c0.2,0.7-0.1,1.5-0.8,1.7l-5.2,1.9C126.8,27,126.6,27,126.5,27z M129.9,17.9
							C129.9,17.9,129.9,17.9,129.9,17.9l-8.2,0.4c-0.2,0-0.3,0.2-0.4,0.3c-0.1,0.2-0.1,0.3,0,0.5l4.8,6.9c0.1,0.2,0.3,0.2,0.5,0.2
							l5.2-1.9c0.2-0.1,0.4-0.4,0.3-0.6l-1.8-5.4C130.3,18.1,130.1,17.9,129.9,17.9z"/>
					</g>
					<g id="XMLID_2689_">
						<path id="XMLID_156_" d="M125.6,41.6c-0.2,0-0.4,0-0.5-0.1l-7.5-3.4c-0.5-0.2-0.8-0.6-0.8-1.1c0-0.5,0.2-1,0.6-1.3l6.9-4.6
							c0.5-0.3,1.2-0.3,1.6,0.1l4.2,3.7c0.6,0.5,0.6,1.4,0.1,1.9v0l-3.6,4.3C126.4,41.4,126,41.6,125.6,41.6z M125,31.7
							c-0.1,0-0.2,0-0.2,0.1l-6.9,4.6c-0.1,0.1-0.2,0.3-0.2,0.4c0,0.2,0.1,0.3,0.3,0.4l7.5,3.4c0.2,0.1,0.4,0,0.5-0.1l3.6-4.3
							c0.2-0.2,0.1-0.5-0.1-0.7l-4.2-3.7C125.2,31.7,125.1,31.7,125,31.7z"/>
					</g>
					<g id="XMLID_2688_">
						<path id="XMLID_153_" d="M142.3,16c-0.1,0-0.3,0-0.4-0.1l-5.3-1.7c-0.6-0.2-1-0.7-0.9-1.3l0.1-8.4c0-0.5,0.3-1,0.7-1.2
							c0.4-0.2,1-0.2,1.4,0.1l6.8,4.7c0.5,0.3,0.7,1,0.5,1.5l-1.7,5.4c-0.1,0.4-0.3,0.6-0.7,0.8C142.7,15.9,142.5,16,142.3,16z
							 M142.2,15.1c0.1,0,0.2,0,0.3,0c0.1-0.1,0.2-0.2,0.2-0.3l1.7-5.4c0.1-0.2,0-0.4-0.2-0.5l-6.8-4.7C137.2,3.9,137,4,137,4
							c-0.2,0.1-0.2,0.2-0.2,0.4l-0.1,8.4c0,0.2,0.1,0.4,0.3,0.5L142.2,15.1z"/>
					</g>
				</g>
			</g>
		</g>
		<g id="XMLID_2656_">
			<g id="XMLID_2660_">
				<g id="XMLID_94_">
					<defs>
						<path id="XMLID_10_" d="M213.7,26.6c2,2.1,2.9,5,2.9,8.7v16.3h-8.5V36.5c0-1.9-0.5-3.3-1.4-4.3c-1-1-2.3-1.5-3.9-1.5
							c-1.6,0-2.9,0.5-3.9,1.5c-1,1-1.4,2.5-1.4,4.3v15.1h-8.6V23.7h8.6v3.7c0.9-1.2,2-2.2,3.5-2.9c1.5-0.7,3.1-1.1,4.9-1.1
							C209.1,23.4,211.8,24.5,213.7,26.6z"/>
					</defs>
					<clipPath id="XMLID_524_">
						<use xlink:href="#XMLID_10_"  style="overflow:visible;"/>
					</clipPath>
					<polygon id="XMLID_95_" class="st289" points="188.9,41 203.1,51.6 188.9,51.6 					"/>
					<polygon id="XMLID_96_" class="st289" points="188.9,40.3 204,51.6 203.1,51.6 188.9,41 					"/>
					<polygon id="XMLID_97_" class="st290" points="188.9,39.6 204.9,51.6 204,51.6 188.9,40.3 					"/>
					<polygon id="XMLID_98_" class="st291" points="188.9,39 205.8,51.6 204.9,51.6 188.9,39.6 					"/>
					<polygon id="XMLID_99_" class="st292" points="188.9,38.3 206.7,51.6 205.8,51.6 188.9,39 					"/>
					<polygon id="XMLID_100_" class="st293" points="188.9,37.6 207.7,51.6 206.7,51.6 188.9,38.3 					"/>
					<polygon id="XMLID_101_" class="st294" points="188.9,36.9 208.6,51.6 207.7,51.6 188.9,37.6 					"/>
					<polygon id="XMLID_102_" class="st295" points="188.9,36.2 209.5,51.6 208.6,51.6 188.9,36.9 					"/>
					<polygon id="XMLID_103_" class="st296" points="188.9,35.6 210.4,51.6 209.5,51.6 188.9,36.2 					"/>
					<polygon id="XMLID_104_" class="st297" points="188.9,34.9 211.3,51.6 210.4,51.6 188.9,35.6 					"/>
					<polygon id="XMLID_105_" class="st298" points="188.9,34.2 212.2,51.6 211.3,51.6 188.9,34.9 					"/>
					<polygon id="XMLID_106_" class="st299" points="188.9,33.5 213.1,51.6 212.2,51.6 188.9,34.2 					"/>
					<polygon id="XMLID_107_" class="st300" points="188.9,32.8 214,51.6 213.1,51.6 188.9,33.5 					"/>
					<polygon id="XMLID_108_" class="st301" points="188.9,32.2 214.9,51.6 214,51.6 188.9,32.8 					"/>
					<polygon id="XMLID_109_" class="st302" points="188.9,31.5 215.8,51.6 214.9,51.6 188.9,32.2 					"/>
					<polygon id="XMLID_110_" class="st303" points="188.9,30.8 216.6,51.6 216.6,51.6 215.8,51.6 188.9,31.5 					"/>
					<polygon id="XMLID_111_" class="st304" points="188.9,30.1 216.6,50.9 216.6,51.6 188.9,30.8 					"/>
					<polygon id="XMLID_112_" class="st305" points="188.9,29.4 216.6,50.2 216.6,50.9 188.9,30.1 					"/>
					<polygon id="XMLID_113_" class="st306" points="188.9,28.8 216.6,49.5 216.6,50.2 188.9,29.4 					"/>
					<polygon id="XMLID_114_" class="st307" points="188.9,28.1 216.6,48.8 216.6,49.5 188.9,28.8 					"/>
					<polygon id="XMLID_115_" class="st308" points="188.9,27.4 216.6,48.2 216.6,48.8 188.9,28.1 					"/>
					<polygon id="XMLID_116_" class="st309" points="188.9,26.7 216.6,47.5 216.6,48.2 188.9,27.4 					"/>
					<polygon id="XMLID_117_" class="st310" points="188.9,26 216.6,46.8 216.6,47.5 188.9,26.7 					"/>
					<polygon id="XMLID_118_" class="st311" points="188.9,25.4 216.6,46.1 216.6,46.8 188.9,26 					"/>
					<polygon id="XMLID_119_" class="st312" points="188.9,24.7 216.6,45.4 216.6,46.1 188.9,25.4 					"/>
					<polygon id="XMLID_120_" class="st313" points="188.9,24 216.6,44.8 216.6,45.4 188.9,24.7 					"/>
					<polygon id="XMLID_121_" class="st314" points="189,23.4 216.6,44.1 216.6,44.8 188.9,24 188.9,23.4 					"/>
					<polygon id="XMLID_122_" class="st315" points="189.9,23.4 216.6,43.4 216.6,44.1 189,23.4 					"/>
					<polygon id="XMLID_123_" class="st316" points="190.9,23.4 216.6,42.7 216.6,43.4 189.9,23.4 					"/>
					<polygon id="XMLID_124_" class="st317" points="191.8,23.4 216.6,42 216.6,42.7 190.9,23.4 					"/>
					<polygon id="XMLID_125_" class="st318" points="192.7,23.4 216.6,41.4 216.6,42 191.8,23.4 					"/>
					<polygon id="XMLID_126_" class="st319" points="193.6,23.4 216.6,40.7 216.6,41.4 192.7,23.4 					"/>
					<polygon id="XMLID_127_" class="st320" points="194.5,23.4 216.6,40 216.6,40.7 193.6,23.4 					"/>
					<polygon id="XMLID_128_" class="st321" points="195.4,23.4 216.6,39.3 216.6,40 194.5,23.4 					"/>
					<polygon id="XMLID_129_" class="st322" points="196.3,23.4 216.6,38.6 216.6,39.3 195.4,23.4 					"/>
					<polygon id="XMLID_130_" class="st323" points="197.2,23.4 216.6,38 216.6,38.6 196.3,23.4 					"/>
					<polygon id="XMLID_131_" class="st324" points="198.1,23.4 216.6,37.3 216.6,38 197.2,23.4 					"/>
					<polygon id="XMLID_132_" class="st325" points="199,23.4 216.6,36.6 216.6,37.3 198.1,23.4 					"/>
					<polygon id="XMLID_133_" class="st326" points="199.9,23.4 216.6,35.9 216.6,36.6 199,23.4 					"/>
					<polygon id="XMLID_134_" class="st327" points="200.9,23.4 216.6,35.2 216.6,35.9 199.9,23.4 					"/>
					<polygon id="XMLID_135_" class="st328" points="201.8,23.4 216.6,34.6 216.6,35.2 200.9,23.4 					"/>
					<polygon id="XMLID_136_" class="st329" points="202.7,23.4 216.6,33.9 216.6,34.6 201.8,23.4 					"/>
					<polygon id="XMLID_137_" class="st330" points="203.6,23.4 216.6,33.2 216.6,33.9 202.7,23.4 					"/>
					<polygon id="XMLID_138_" class="st331" points="204.5,23.4 216.6,32.5 216.6,33.2 203.6,23.4 					"/>
					<polygon id="XMLID_139_" class="st332" points="205.4,23.4 216.6,31.8 216.6,32.5 204.5,23.4 					"/>
					<polygon id="XMLID_140_" class="st333" points="206.3,23.4 216.6,31.2 216.6,31.8 205.4,23.4 					"/>
					<polygon id="XMLID_141_" class="st334" points="207.2,23.4 216.6,30.5 216.6,31.2 206.3,23.4 					"/>
					<polygon id="XMLID_142_" class="st335" points="208.1,23.4 216.6,29.8 216.6,30.5 207.2,23.4 					"/>
					<polygon id="XMLID_143_" class="st336" points="209,23.4 216.6,29.1 216.6,29.8 208.1,23.4 					"/>
					<polygon id="XMLID_144_" class="st337" points="209.9,23.4 216.6,28.4 216.6,29.1 209,23.4 					"/>
					<polygon id="XMLID_145_" class="st338" points="210.8,23.4 216.6,27.8 216.6,28.4 209.9,23.4 					"/>
					<polygon id="XMLID_146_" class="st339" points="211.8,23.4 216.6,27.1 216.6,27.8 210.8,23.4 					"/>
					<polygon id="XMLID_147_" class="st340" points="212.7,23.4 216.6,26.4 216.6,27.1 211.8,23.4 					"/>
					<polygon id="XMLID_148_" class="st341" points="213.6,23.4 216.6,25.7 216.6,26.4 212.7,23.4 					"/>
					<polygon id="XMLID_149_" class="st342" points="214.5,23.4 216.6,25 216.6,25.7 213.6,23.4 					"/>
					<polygon id="XMLID_150_" class="st343" points="215.4,23.4 216.6,24.4 216.6,25 214.5,23.4 					"/>
					<polygon id="XMLID_151_" class="st344" points="216.3,23.4 216.6,23.7 216.6,24.4 215.4,23.4 					"/>
					<polygon id="XMLID_152_" class="st345" points="216.6,23.7 216.3,23.4 216.6,23.4 					"/>
				</g>
				<path id="XMLID_90_" d="M217.1,52.1h-9.4V36.5c0-1.7-0.4-3.1-1.3-4c-0.9-0.9-2.1-1.4-3.6-1.4c-1.5,0-2.7,0.5-3.6,1.4
					c-0.9,0.9-1.3,2.3-1.3,4v15.6h-9.5V23.3h9.5v2.9c0.8-0.8,1.7-1.5,2.8-2.1c1.5-0.7,3.3-1.1,5.1-1.1c3.4,0,6.1,1.1,8.2,3.3
					c2,2.2,3,5.2,3,9V52.1z M208.6,51.2h7.6V35.3c0-3.6-0.9-6.4-2.8-8.4l0,0c-1.9-2-4.4-3-7.5-3c-1.8,0-3.4,0.3-4.8,1
					c-1.4,0.7-2.5,1.6-3.3,2.8l-0.8,1.2v-4.7h-7.6v27h7.6V36.5c0-2,0.5-3.5,1.6-4.7c1.1-1.1,2.5-1.7,4.2-1.7c1.8,0,3.2,0.6,4.2,1.7
					c1,1.1,1.6,2.7,1.6,4.7V51.2z"/>
			</g>
			<g id="XMLID_2657_">
				<g id="XMLID_11_">
					<defs>
						<path id="XMLID_2_" d="M248.7,39.7h-19.3c0.1,1.7,0.7,3.1,1.7,4c1,0.9,2.2,1.4,3.6,1.4c2.1,0,3.6-0.9,4.4-2.7h9.1
							c-0.5,1.8-1.3,3.5-2.5,5s-2.7,2.6-4.6,3.5c-1.8,0.8-3.9,1.3-6.2,1.3c-2.7,0-5.2-0.6-7.3-1.8c-2.1-1.2-3.8-2.8-5-5
							c-1.2-2.2-1.8-4.7-1.8-7.6c0-2.9,0.6-5.4,1.8-7.6c1.2-2.2,2.8-3.8,5-5c2.1-1.2,4.6-1.8,7.3-1.8c2.7,0,5.1,0.6,7.2,1.7
							c2.1,1.1,3.7,2.8,4.9,4.9c1.2,2.1,1.8,4.5,1.8,7.3C248.9,38,248.8,38.9,248.7,39.7z M240.1,35c0-1.5-0.5-2.6-1.5-3.5
							c-1-0.9-2.3-1.3-3.8-1.3c-1.4,0-2.6,0.4-3.6,1.3c-1,0.8-1.6,2-1.8,3.5H240.1z"/>
					</defs>
					<clipPath id="XMLID_525_">
						<use xlink:href="#XMLID_2_"  style="overflow:visible;"/>
					</clipPath>
					<polygon id="XMLID_12_" class="st346" points="229.4,34.6 229.9,35 229.4,35 					"/>
					<polygon id="XMLID_13_" class="st347" points="229.4,33.9 230.8,35 229.9,35 229.4,34.6 					"/>
					<polygon id="XMLID_14_" class="st348" points="229.4,33.3 231.7,35 230.8,35 229.4,33.9 					"/>
					<polygon id="XMLID_15_" class="st349" points="229.4,32.6 232.6,35 231.7,35 229.4,33.3 					"/>
					<polygon id="XMLID_16_" class="st350" points="229.4,31.9 233.6,35 232.6,35 229.4,32.6 					"/>
					<polygon id="XMLID_17_" class="st351" points="229.4,31.2 234.5,35 233.6,35 229.4,31.9 					"/>
					<polygon id="XMLID_18_" class="st352" points="229.4,30.5 235.4,35 234.5,35 229.4,31.2 					"/>
					<polygon id="XMLID_19_" class="st353" points="229.9,30.2 236.3,35 235.4,35 229.4,30.5 229.4,30.2 					"/>
					<polygon id="XMLID_20_" class="st354" points="230.8,30.2 237.2,35 236.3,35 229.9,30.2 					"/>
					<polygon id="XMLID_21_" class="st355" points="231.7,30.2 238.1,35 237.2,35 230.8,30.2 					"/>
					<polygon id="XMLID_22_" class="st356" points="232.6,30.2 239,35 238.1,35 231.7,30.2 					"/>
					<polygon id="XMLID_23_" class="st357" points="233.5,30.2 239.9,35 239,35 232.6,30.2 					"/>
					<polygon id="XMLID_24_" class="st358" points="234.4,30.2 240.1,34.5 240.1,35 239.9,35 233.5,30.2 					"/>
					<polygon id="XMLID_25_" class="st359" points="235.3,30.2 240.1,33.8 240.1,34.5 234.4,30.2 					"/>
					<polygon id="XMLID_26_" class="st360" points="236.2,30.2 240.1,33.1 240.1,33.8 235.3,30.2 					"/>
					<polygon id="XMLID_27_" class="st361" points="237.1,30.2 240.1,32.4 240.1,33.1 236.2,30.2 					"/>
					<polygon id="XMLID_28_" class="st362" points="238,30.2 240.1,31.7 240.1,32.4 237.1,30.2 					"/>
					<polygon id="XMLID_29_" class="st363" points="238.9,30.2 240.1,31.1 240.1,31.7 238,30.2 					"/>
					<polygon id="XMLID_30_" class="st364" points="239.9,30.2 240.1,30.4 240.1,31.1 238.9,30.2 					"/>
					<polygon id="XMLID_31_" class="st365" points="240.1,30.4 239.9,30.2 240.1,30.2 					"/>
					<polygon id="XMLID_32_" class="st366" points="220.9,52 220.9,52 220.9,52 					"/>
					<polygon id="XMLID_33_" class="st367" points="220.9,51.3 221.8,52 220.9,52 220.9,52 					"/>
					<polygon id="XMLID_34_" class="st368" points="220.9,50.7 222.7,52 221.8,52 220.9,51.3 					"/>
					<polygon id="XMLID_35_" class="st369" points="220.9,50 223.6,52 222.7,52 220.9,50.7 					"/>
					<polygon id="XMLID_36_" class="st370" points="220.9,49.3 224.5,52 223.6,52 220.9,50 					"/>
					<polygon id="XMLID_37_" class="st371" points="220.9,48.6 225.5,52 224.5,52 220.9,49.3 					"/>
					<polygon id="XMLID_38_" class="st372" points="220.9,47.9 226.4,52 225.5,52 220.9,48.6 					"/>
					<polygon id="XMLID_39_" class="st373" points="220.9,47.3 227.3,52 226.4,52 220.9,47.9 					"/>
					<polygon id="XMLID_40_" class="st374" points="220.9,46.6 228.2,52 227.3,52 220.9,47.3 					"/>
					<polygon id="XMLID_41_" class="st375" points="220.9,45.9 229.1,52 228.2,52 220.9,46.6 					"/>
					<polygon id="XMLID_42_" class="st376" points="220.9,45.2 230,52 229.1,52 220.9,45.9 					"/>
					<polygon id="XMLID_43_" class="st377" points="220.9,44.5 230.9,52 230,52 220.9,45.2 					"/>
					<polygon id="XMLID_44_" class="st378" points="220.9,43.9 231.8,52 230.9,52 220.9,44.5 					"/>
					<polygon id="XMLID_45_" class="st379" points="220.9,43.2 232.7,52 231.8,52 220.9,43.9 					"/>
					<polygon id="XMLID_46_" class="st380" points="220.9,42.5 233.6,52 232.7,52 220.9,43.2 					"/>
					<polygon id="XMLID_47_" class="st381" points="220.9,41.8 234.5,52 233.6,52 220.9,42.5 					"/>
					<polygon id="XMLID_48_" class="st382" points="220.9,41.1 235.4,52 234.5,52 220.9,41.8 					"/>
					<polygon id="XMLID_49_" class="st383" points="220.9,40.5 236.4,52 235.4,52 220.9,41.1 					"/>
					<polygon id="XMLID_50_" class="st384" points="220.9,39.8 237.3,52 236.4,52 220.9,40.5 					"/>
					<polygon id="XMLID_51_" class="st385" points="220.9,39.1 238.2,52 237.3,52 220.9,39.8 					"/>
					<polygon id="XMLID_52_" class="st386" points="220.9,38.4 239.1,52 238.2,52 220.9,39.1 					"/>
					<polygon id="XMLID_53_" class="st387" points="220.9,37.7 240,52 239.1,52 220.9,38.4 					"/>
					<polygon id="XMLID_54_" class="st388" points="220.9,37.1 240.9,52 240,52 220.9,37.7 					"/>
					<polygon id="XMLID_55_" class="st389" points="220.9,36.4 241.8,52 240.9,52 220.9,37.1 					"/>
					<polygon id="XMLID_56_" class="st390" points="220.9,35.7 242.7,52 241.8,52 220.9,36.4 					"/>
					<polygon id="XMLID_57_" class="st391" points="220.9,35 243.6,52 242.7,52 220.9,35.7 					"/>
					<polygon id="XMLID_58_" class="st392" points="220.9,34.3 244.5,52 243.6,52 220.9,35 					"/>
					<polygon id="XMLID_59_" class="st393" points="220.9,33.7 245,51.7 244.8,52 244.5,52 220.9,34.3 					"/>
					<polygon id="XMLID_60_" class="st394" points="220.9,33 245.4,51.3 245,51.7 220.9,33.7 					"/>
					<polygon id="XMLID_61_" class="st395" points="220.9,32.3 245.7,50.9 245.4,51.3 220.9,33 					"/>
					<polygon id="XMLID_62_" class="st396" points="220.9,31.6 246,50.4 245.7,50.9 220.9,32.3 					"/>
					<polygon id="XMLID_63_" class="st397" points="220.9,30.9 246.3,50 246,50.4 220.9,31.6 					"/>
					<polygon id="XMLID_64_" class="st398" points="220.9,30.3 246.7,49.6 246.3,50 220.9,30.9 					"/>
					<polygon id="XMLID_65_" class="st399" points="220.9,29.6 247,49.1 246.7,49.6 220.9,30.3 					"/>
					<polygon id="XMLID_66_" class="st400" points="220.9,28.9 247.3,48.7 247,49.1 220.9,29.6 					"/>
					<polygon id="XMLID_67_" class="st346" points="220.9,28.5 221,28.3 247.6,48.2 247.3,48.7 220.9,28.9 					"/>
					
						<rect id="XMLID_68_" x="234.2" y="21.5" transform="matrix(0.599 -0.8007 0.8007 0.599 63.5474 203.0406)" class="st347" width="0.5" height="33.2"/>
					
						<rect id="XMLID_69_" x="234.6" y="21" transform="matrix(0.599 -0.8007 0.8007 0.599 64.0271 203.1269)" class="st348" width="0.5" height="33.2"/>
					
						<rect id="XMLID_70_" x="234.9" y="20.6" transform="matrix(0.599 -0.8007 0.8007 0.599 64.5068 203.2132)" class="st349" width="0.5" height="33.2"/>
					<polygon id="XMLID_71_" class="st350" points="222,27 222.3,26.6 248.9,46.5 248.9,46.6 248.6,46.9 					"/>
					<polygon id="XMLID_72_" class="st351" points="222.3,26.6 222.7,26.2 248.9,45.8 248.9,46.5 					"/>
					<polygon id="XMLID_73_" class="st352" points="222.7,26.2 223,25.7 248.9,45.1 248.9,45.8 					"/>
					<polygon id="XMLID_74_" class="st353" points="223,25.7 223.3,25.3 248.9,44.4 248.9,45.1 					"/>
					<polygon id="XMLID_75_" class="st354" points="223.3,25.3 223.6,24.8 248.9,43.7 248.9,44.4 					"/>
					<polygon id="XMLID_76_" class="st355" points="223.6,24.8 224,24.4 248.9,43.1 248.9,43.7 					"/>
					<polygon id="XMLID_77_" class="st356" points="224,24.4 224.3,24 248.9,42.4 248.9,43.1 					"/>
					<polygon id="XMLID_78_" class="st357" points="224.3,24 224.6,23.5 248.9,41.7 248.9,42.4 					"/>
					<polygon id="XMLID_79_" class="st358" points="224.6,23.5 224.8,23.3 225.3,23.3 248.9,41 248.9,41.7 					"/>
					<polygon id="XMLID_80_" class="st359" points="226.2,23.3 248.9,40.3 248.9,41 225.3,23.3 					"/>
					<polygon id="XMLID_81_" class="st360" points="227.1,23.3 248.9,39.7 248.9,40.3 226.2,23.3 					"/>
					<polygon id="XMLID_82_" class="st361" points="228,23.3 248.9,39 248.9,39.7 227.1,23.3 					"/>
					<polygon id="XMLID_83_" class="st362" points="228.9,23.3 248.9,38.3 248.9,39 228,23.3 					"/>
					<polygon id="XMLID_84_" class="st363" points="229.8,23.3 248.9,37.6 248.9,38.3 228.9,23.3 					"/>
					<polygon id="XMLID_85_" class="st364" points="230.7,23.3 248.9,36.9 248.9,37.6 229.8,23.3 					"/>
					<polygon id="XMLID_86_" class="st365" points="231.6,23.3 248.9,36.3 248.9,36.9 230.7,23.3 					"/>
					<polygon id="XMLID_87_" class="st401" points="232.5,23.3 248.9,35.6 248.9,36.3 231.6,23.3 					"/>
					<polygon id="XMLID_88_" class="st401" points="248.9,35.6 232.5,23.3 248.9,23.3 					"/>
				</g>
				<path id="XMLID_5_" d="M235,52.5c-2.8,0-5.3-0.6-7.5-1.8c-2.2-1.2-3.9-2.9-5.2-5.2c-1.2-2.2-1.9-4.9-1.9-7.8
					c0-3,0.6-5.6,1.8-7.8c1.2-2.2,3-4,5.2-5.2c2.2-1.2,4.7-1.8,7.6-1.8c2.8,0,5.3,0.6,7.4,1.8c2.2,1.2,3.9,2.9,5.1,5
					c1.2,2.2,1.8,4.7,1.8,7.6c0,0.8-0.1,1.7-0.2,2.6l0,0.4h-19.3c0.2,1.4,0.7,2.4,1.5,3.2c0.9,0.8,2,1.3,3.3,1.3c2,0,3.3-0.8,4-2.4
					l0.1-0.3h10l-0.1,0.6c-0.5,1.9-1.4,3.6-2.6,5.1s-2.8,2.7-4.7,3.6C239.4,52.1,237.3,52.5,235,52.5z M235,23.8
					c-2.7,0-5.1,0.6-7.1,1.7c-2,1.1-3.7,2.7-4.8,4.8c-1.1,2.1-1.7,4.6-1.7,7.4c0,2.8,0.6,5.3,1.7,7.4c1.2,2.1,2.8,3.7,4.8,4.8
					c2.1,1.1,4.4,1.7,7.1,1.7c2.2,0,4.2-0.4,6-1.2c1.8-0.8,3.2-1.9,4.4-3.3c1-1.3,1.8-2.7,2.3-4.2h-8.2c-0.9,1.8-2.5,2.7-4.7,2.7
					c-1.5,0-2.9-0.5-3.9-1.5c-1.1-1-1.7-2.4-1.8-4.3l0-0.5h19.4c0.1-0.7,0.1-1.4,0.1-2c0-2.7-0.6-5.1-1.7-7.1
					c-1.1-2-2.7-3.6-4.7-4.7C239.9,24.3,237.6,23.8,235,23.8z M240.6,35.4h-11.7l0.1-0.5c0.2-1.6,0.9-2.9,2-3.8
					c1.1-0.9,2.4-1.4,3.9-1.4c1.6,0,3,0.5,4,1.4c1.1,1,1.7,2.2,1.7,3.8V35.4z M230,34.5h9.7c-0.1-1.1-0.5-2-1.3-2.7
					c-0.9-0.8-2.1-1.2-3.5-1.2c-1.3,0-2.4,0.4-3.3,1.1C230.8,32.4,230.2,33.4,230,34.5z"/>
			</g>
		</g>
	</g>
	<g>
		<path class="st402" d="M23.9,19v6.3H10.7v6.8h9.8v6.1h-9.8v13.1H2.9V19H23.9z"/>
		<path class="st402" d="M34.9,49.5c-2.5-1.4-4.5-3.4-6-5.9c-1.5-2.5-2.2-5.4-2.2-8.5c0-3.2,0.7-6,2.2-8.5c1.5-2.5,3.5-4.5,6-5.9
			c2.5-1.4,5.3-2.1,8.3-2.1s5.8,0.7,8.3,2.1c2.5,1.4,4.5,3.4,6,5.9c1.5,2.5,2.2,5.4,2.2,8.5c0,3.2-0.7,6-2.2,8.5
			c-1.5,2.5-3.5,4.5-6,5.9c-2.5,1.4-5.3,2.1-8.3,2.1S37.5,51,34.9,49.5z M49.5,41.9c1.5-1.7,2.3-4,2.3-6.8c0-2.9-0.8-5.1-2.3-6.8
			c-1.5-1.7-3.6-2.6-6.2-2.6c-2.6,0-4.7,0.8-6.2,2.5c-1.5,1.7-2.3,4-2.3,6.9c0,2.9,0.8,5.1,2.3,6.8c1.5,1.7,3.6,2.6,6.2,2.6
			C45.9,44.5,47.9,43.6,49.5,41.9z"/>
		<path class="st402" d="M69.5,50.5c-1.9-0.8-3.4-1.9-4.5-3.4c-1.1-1.5-1.7-3.3-1.8-5.4h8.4c0.1,1.2,0.5,2.1,1.2,2.7
			c0.7,0.6,1.6,0.9,2.8,0.9c1.2,0,2.1-0.3,2.8-0.8c0.7-0.5,1-1.3,1-2.2c0-0.8-0.3-1.5-0.8-2c-0.5-0.5-1.2-1-2-1.3
			c-0.8-0.3-1.9-0.7-3.3-1.2c-2.1-0.6-3.8-1.3-5.1-1.9c-1.3-0.6-2.5-1.6-3.4-2.9c-1-1.3-1.4-2.9-1.4-4.9c0-3,1.1-5.4,3.3-7.1
			c2.2-1.7,5-2.6,8.5-2.6c3.6,0,6.4,0.9,8.6,2.6c2.2,1.7,3.3,4.1,3.5,7.1h-8.5c-0.1-1-0.4-1.9-1.2-2.5c-0.7-0.6-1.6-0.9-2.7-0.9
			c-1,0-1.7,0.3-2.3,0.8c-0.6,0.5-0.9,1.2-0.9,2.2c0,1,0.5,1.9,1.5,2.4c1,0.6,2.5,1.2,4.6,1.9c2.1,0.7,3.8,1.4,5.1,2
			c1.3,0.6,2.4,1.6,3.4,2.8c1,1.2,1.4,2.8,1.4,4.7c0,1.8-0.5,3.5-1.4,5c-0.9,1.5-2.3,2.7-4.1,3.6c-1.8,0.9-3.9,1.3-6.3,1.3
			C73.5,51.7,71.4,51.3,69.5,50.5z"/>
		<path class="st402" d="M100.3,45.3h10.3v6.1H92.5V19h7.9V45.3z"/>
	</g>
	<g>
		<path class="st403" d="M4.5,59.2v9.1H3.6v-9.1H4.5z"/>
		<path class="st403" d="M12,61.8c0.5,0.5,0.8,1.3,0.8,2.3v4.2h-0.9v-4.1c0-0.8-0.2-1.4-0.6-1.8s-0.9-0.6-1.6-0.6
			c-0.7,0-1.2,0.2-1.6,0.6c-0.4,0.4-0.6,1.1-0.6,1.9v3.9H6.6v-7.1h0.9v1.2c0.2-0.4,0.6-0.8,1-1C8.9,61.1,9.4,61,9.9,61
			C10.8,61,11.5,61.3,12,61.8z"/>
		<path class="st403" d="M14.9,62.8c0.3-0.5,0.7-1,1.2-1.3c0.5-0.3,1.1-0.4,1.8-0.4c0.9,0,1.6,0.2,2.2,0.7s0.9,1,1.1,1.8h-1
			c-0.1-0.5-0.4-0.9-0.8-1.2c-0.4-0.3-0.9-0.4-1.5-0.4c-0.5,0-0.9,0.1-1.3,0.3c-0.4,0.2-0.7,0.5-0.9,1c-0.2,0.4-0.3,1-0.3,1.6
			s0.1,1.2,0.3,1.6c0.2,0.4,0.5,0.8,0.9,1c0.4,0.2,0.8,0.3,1.3,0.3c0.6,0,1.1-0.1,1.5-0.4c0.4-0.3,0.7-0.7,0.8-1.2h1
			c-0.2,0.7-0.5,1.3-1.1,1.8c-0.6,0.4-1.3,0.7-2.2,0.7c-0.7,0-1.3-0.1-1.8-0.4s-0.9-0.7-1.2-1.3c-0.3-0.6-0.4-1.2-0.4-1.9
			S14.6,63.3,14.9,62.8z"/>
		<path class="st403" d="M29,61.2v7.1h-0.9V67c-0.2,0.4-0.5,0.8-1,1c-0.4,0.2-0.9,0.4-1.5,0.4c-0.8,0-1.5-0.3-2.1-0.8
			c-0.5-0.5-0.8-1.3-0.8-2.3v-4.1h0.9v4c0,0.8,0.2,1.4,0.6,1.8c0.4,0.4,0.9,0.6,1.6,0.6c0.7,0,1.2-0.2,1.6-0.7
			c0.4-0.4,0.6-1.1,0.6-1.9v-3.9H29z"/>
		<path class="st403" d="M33,61.5c0.5-0.3,1.1-0.5,1.7-0.5c0.7,0,1.2,0.1,1.7,0.4c0.5,0.3,0.9,0.7,1.2,1.3c0.3,0.6,0.4,1.2,0.4,1.9
			c0,0.7-0.1,1.4-0.4,1.9c-0.3,0.6-0.7,1-1.2,1.3c-0.5,0.3-1.1,0.5-1.7,0.5c-0.7,0-1.3-0.2-1.7-0.5s-0.8-0.7-1.1-1.2v1.6H31v-9.6
			h0.9v4.1C32.2,62.2,32.5,61.8,33,61.5z M36.9,63.2c-0.2-0.4-0.5-0.8-0.9-1c-0.4-0.2-0.8-0.3-1.4-0.3c-0.5,0-0.9,0.1-1.3,0.4
			c-0.4,0.2-0.7,0.6-1,1s-0.4,0.9-0.4,1.5s0.1,1.1,0.4,1.5s0.6,0.8,1,1c0.4,0.2,0.8,0.4,1.3,0.4c0.5,0,1-0.1,1.4-0.3
			c0.4-0.2,0.7-0.6,0.9-1c0.2-0.4,0.3-0.9,0.3-1.5C37.2,64.1,37.1,63.6,36.9,63.2z"/>
		<path class="st403" d="M39.8,62.8c0.3-0.5,0.7-1,1.2-1.3c0.5-0.3,1.1-0.4,1.7-0.4c0.7,0,1.3,0.2,1.7,0.5c0.5,0.3,0.8,0.7,1.1,1.2
			v-1.6h0.9v7.1h-0.9v-1.6c-0.2,0.5-0.6,0.9-1.1,1.2s-1.1,0.5-1.7,0.5c-0.6,0-1.2-0.2-1.7-0.5c-0.5-0.3-0.9-0.7-1.2-1.3
			c-0.3-0.6-0.4-1.2-0.4-1.9C39.4,64,39.5,63.3,39.8,62.8z M45.3,63.2c-0.2-0.4-0.6-0.8-1-1c-0.4-0.2-0.8-0.4-1.3-0.4
			c-0.5,0-1,0.1-1.4,0.3c-0.4,0.2-0.7,0.6-0.9,1c-0.2,0.4-0.3,0.9-0.3,1.5c0,0.6,0.1,1.1,0.3,1.5c0.2,0.4,0.5,0.8,0.9,1
			c0.4,0.2,0.8,0.3,1.4,0.3c0.5,0,0.9-0.1,1.3-0.4s0.7-0.6,1-1s0.4-0.9,0.4-1.5S45.5,63.6,45.3,63.2z"/>
		<path class="st403" d="M49.8,61.9v4.4c0,0.4,0.1,0.7,0.2,0.9c0.2,0.2,0.5,0.2,0.9,0.2h0.8v0.8h-1c-0.6,0-1.1-0.1-1.4-0.4
			s-0.5-0.8-0.5-1.5v-4.4h-1v-0.8h1v-1.8h0.9v1.8h1.9v0.8H49.8z"/>
		<path class="st403" d="M59.6,65.1h-5.9c0,0.5,0.2,1,0.4,1.4c0.2,0.4,0.5,0.7,0.9,0.9c0.4,0.2,0.8,0.3,1.2,0.3
			c0.6,0,1.1-0.1,1.5-0.4c0.4-0.3,0.7-0.7,0.8-1.2h1c-0.2,0.7-0.5,1.3-1.1,1.7c-0.6,0.4-1.3,0.7-2.1,0.7c-0.7,0-1.3-0.1-1.8-0.4
			s-0.9-0.7-1.2-1.3c-0.3-0.6-0.4-1.2-0.4-1.9s0.1-1.4,0.4-1.9s0.7-1,1.2-1.3c0.5-0.3,1.1-0.4,1.8-0.4c0.7,0,1.3,0.1,1.8,0.4
			c0.5,0.3,0.9,0.7,1.2,1.2c0.3,0.5,0.4,1.1,0.4,1.7C59.6,64.6,59.6,64.9,59.6,65.1z M58.4,63c-0.2-0.4-0.5-0.7-0.9-0.8
			s-0.8-0.3-1.2-0.3c-0.7,0-1.3,0.2-1.7,0.6c-0.5,0.4-0.7,1-0.8,1.8h5C58.7,63.8,58.6,63.3,58.4,63z"/>
		<path class="st403" d="M61.3,62.8c0.3-0.5,0.7-1,1.2-1.3c0.5-0.3,1.1-0.4,1.7-0.4c0.6,0,1.2,0.2,1.7,0.5c0.5,0.3,0.9,0.7,1.1,1.2
			v-4.1H68v9.6h-0.9v-1.6c-0.2,0.5-0.6,0.9-1.1,1.2c-0.5,0.3-1.1,0.5-1.7,0.5c-0.6,0-1.2-0.2-1.7-0.5c-0.5-0.3-0.9-0.7-1.2-1.3
			c-0.3-0.6-0.4-1.2-0.4-1.9C60.9,64,61,63.3,61.3,62.8z M66.7,63.2c-0.2-0.4-0.6-0.8-1-1c-0.4-0.2-0.8-0.4-1.3-0.4
			c-0.5,0-1,0.1-1.4,0.3c-0.4,0.2-0.7,0.6-0.9,1c-0.2,0.4-0.3,0.9-0.3,1.5c0,0.6,0.1,1.1,0.3,1.5c0.2,0.4,0.5,0.8,0.9,1
			c0.4,0.2,0.8,0.3,1.4,0.3c0.5,0,0.9-0.1,1.3-0.4s0.7-0.6,1-1s0.4-0.9,0.4-1.5S67,63.6,66.7,63.2z"/>
		<path class="st403" d="M75.6,61.5c0.5-0.3,1.1-0.5,1.7-0.5c0.7,0,1.2,0.1,1.7,0.4c0.5,0.3,0.9,0.7,1.2,1.3
			c0.3,0.6,0.4,1.2,0.4,1.9c0,0.7-0.1,1.4-0.4,1.9c-0.3,0.6-0.7,1-1.2,1.3c-0.5,0.3-1.1,0.5-1.7,0.5c-0.7,0-1.3-0.2-1.7-0.5
			s-0.8-0.7-1.1-1.2v1.6h-0.9v-9.6h0.9v4.1C74.8,62.2,75.1,61.8,75.6,61.5z M79.5,63.2c-0.2-0.4-0.5-0.8-0.9-1
			c-0.4-0.2-0.8-0.3-1.4-0.3c-0.5,0-0.9,0.1-1.3,0.4c-0.4,0.2-0.7,0.6-1,1s-0.4,0.9-0.4,1.5s0.1,1.1,0.4,1.5s0.6,0.8,1,1
			c0.4,0.2,0.8,0.4,1.3,0.4c0.5,0,1-0.1,1.4-0.3c0.4-0.2,0.7-0.6,0.9-1c0.2-0.4,0.3-0.9,0.3-1.5C79.8,64.1,79.7,63.6,79.5,63.2z"/>
		<path class="st403" d="M88.3,61.2l-4.2,10.4h-0.9l1.4-3.4l-2.9-7.1h1l2.4,6.1l2.3-6.1H88.3z"/>
		<path class="st403" d="M98.3,66.1h-4.1l-0.8,2.2h-1l3.3-9h1l3.3,9h-1L98.3,66.1z M98.1,65.3l-1.8-4.9l-1.8,4.9H98.1z"/>
		<path class="st403" d="M102.5,59.2v9.1h-0.9v-9.1H102.5z"/>
		<path class="st403" d="M106.3,67.7c-0.7-0.4-1.2-0.9-1.6-1.7s-0.6-1.5-0.6-2.4s0.2-1.7,0.6-2.4s0.9-1.3,1.6-1.7s1.4-0.6,2.3-0.6
			c0.8,0,1.6,0.2,2.3,0.6s1.2,0.9,1.6,1.7c0.4,0.7,0.6,1.5,0.6,2.4s-0.2,1.7-0.6,2.4c-0.4,0.7-0.9,1.3-1.6,1.7
			c-0.7,0.4-1.5,0.6-2.3,0.6C107.8,68.3,107,68.1,106.3,67.7z M110.4,67.1c0.5-0.3,1-0.8,1.3-1.3s0.5-1.3,0.5-2s-0.2-1.4-0.5-2
			c-0.3-0.6-0.7-1-1.3-1.3s-1.1-0.5-1.8-0.5c-0.7,0-1.3,0.2-1.8,0.5c-0.5,0.3-1,0.8-1.3,1.3c-0.3,0.6-0.5,1.3-0.5,2s0.2,1.4,0.5,2
			s0.7,1,1.3,1.3c0.5,0.3,1.1,0.5,1.8,0.5C109.3,67.5,109.9,67.4,110.4,67.1z"/>
		<path class="st403" d="M120.2,61.8c0.5,0.5,0.8,1.3,0.8,2.3v4.2h-0.9v-4.1c0-0.8-0.2-1.4-0.6-1.8s-0.9-0.6-1.6-0.6
			c-0.7,0-1.2,0.2-1.6,0.6c-0.4,0.4-0.6,1.1-0.6,1.9v3.9h-0.9v-7.1h0.9v1.2c0.2-0.4,0.5-0.8,1-1c0.4-0.2,0.9-0.3,1.4-0.3
			C118.9,61,119.6,61.3,120.2,61.8z"/>
		<path class="st403" d="M129.4,65.1h-5.9c0,0.5,0.2,1,0.4,1.4c0.2,0.4,0.5,0.7,0.9,0.9c0.4,0.2,0.8,0.3,1.2,0.3
			c0.6,0,1.1-0.1,1.5-0.4c0.4-0.3,0.7-0.7,0.8-1.2h1c-0.2,0.7-0.5,1.3-1.1,1.7c-0.6,0.4-1.3,0.7-2.1,0.7c-0.7,0-1.3-0.1-1.8-0.4
			c-0.5-0.3-0.9-0.7-1.2-1.3c-0.3-0.6-0.4-1.2-0.4-1.9s0.1-1.4,0.4-1.9c0.3-0.6,0.7-1,1.2-1.3s1.1-0.4,1.8-0.4
			c0.7,0,1.3,0.1,1.8,0.4s0.9,0.7,1.2,1.2c0.3,0.5,0.4,1.1,0.4,1.7C129.4,64.6,129.4,64.9,129.4,65.1z M128.2,63
			c-0.2-0.4-0.5-0.7-0.9-0.8c-0.4-0.2-0.8-0.3-1.2-0.3c-0.7,0-1.3,0.2-1.7,0.6c-0.5,0.4-0.7,1-0.8,1.8h5
			C128.5,63.8,128.4,63.3,128.2,63z"/>
	</g>
</g>
</svg>
