<?xml version="1.0" encoding="utf-8"?>
<!-- Generator: Adobe Illustrator 16.0.0, SVG Export Plug-In . SVG Version: 6.00 Build 0)  -->
<!DOCTYPE svg PUBLIC "-//W3C//DTD SVG 1.1//EN" "http://www.w3.org/Graphics/SVG/1.1/DTD/svg11.dtd">
<svg version="1.1" id="Layer_1" xmlns="http://www.w3.org/2000/svg" xmlns:xlink="http://www.w3.org/1999/xlink" x="0px" y="0px"
	 width="220px" height="220px" viewBox="0 0 220 220" enable-background="new 0 0 220 220" xml:space="preserve">
<path opacity="0.1" fill="#F5FC59" d="M168.765,59.309c-10.573-14.835-26.776-26.128-44.841-28.493
	c-15.291-2.002-30.959,2.43-44.245,10.262c-13.285,7.831-25.785,20.29-33.904,32.375l0.013-0.008
	c-11.685,16.854-15.762,38.879-10.601,58.756c5.629,21.679,22.097,40.252,42.947,48.435c16.423,6.445,34.708,6.578,52.176,4.101
	c13.839-1.963,28.02-5.798,38.474-15.075c8.008-7.107,13.245-16.996,15.879-27.374s2.789-21.254,1.758-31.912
	C184.664,92.24,179.339,74.144,168.765,59.309z"/>
<g>
	<g>
		<polygon fill="#FFFFFF" points="183.469,136.223 181.143,142.012 185.532,142.012 188.309,133.287 185.061,133.287 
			186.882,123.967 186.864,123.967 179.409,136.223 		"/>
		<polygon fill="#FFFFFF" points="166.482,136.223 168.809,142.012 164.14,142.012 161.591,133.287 164.891,133.287 
			163.069,123.967 163.087,123.967 170.542,136.223 		"/>
		<polygon opacity="0.5" fill="#F5FC59" points="183.469,136.223 181.143,142.012 185.532,142.012 188.309,133.287 185.061,133.287 
			186.882,123.967 186.864,123.967 179.409,136.223 		"/>
		<polygon opacity="0.5" fill="#F5FC59" points="166.482,136.223 168.809,142.012 164.14,142.012 161.591,133.287 164.891,133.287 
			163.069,123.967 163.087,123.967 170.542,136.223 		"/>
		<path fill="#FFFFFF" d="M190.399,145.354v14.938c0,8.251-6.688,14.939-14.938,14.939h-0.001c-8.25,0-14.938-6.688-14.938-14.939
			v-14.938h6.846v14.938c0,4.47,3.623,8.094,8.093,8.094h0.001c4.47,0,8.093-3.624,8.093-8.094v-14.938H190.399z"/>
		<path opacity="0.5" fill="#F5FC59" d="M190.399,145.357v14.936c0,8.248-6.688,14.937-14.937,14.937
			c-0.507,0-0.995-0.028-1.492-0.076c7.539-0.766,13.414-7.129,13.414-14.86v-14.936H190.399z"/>
		<rect x="183.457" y="145.354" fill="#FFFFFF" width="6.942" height="6.846"/>
		<rect x="160.474" y="145.354" fill="#FFFFFF" width="6.942" height="6.846"/>
		<g>
			<path fill="none" stroke="#262262" stroke-miterlimit="10" d="M190.399,145.354v14.938c0,8.251-6.688,14.939-14.938,14.939
				h-0.001c-8.25,0-14.938-6.688-14.938-14.939v-14.938h6.846v14.938c0,4.47,3.623,8.094,8.093,8.094h0.001
				c4.47,0,8.093-3.624,8.093-8.094v-14.938H190.399z"/>
			<rect x="160.521" y="145.354" fill="none" stroke="#262262" stroke-miterlimit="10" width="6.846" height="6.846"/>
			<rect x="183.554" y="145.354" fill="none" stroke="#262262" stroke-miterlimit="10" width="6.846" height="6.846"/>
			<polygon fill="none" stroke="#262262" stroke-miterlimit="10" points="183.469,136.223 181.143,142.012 185.532,142.012 
				188.309,133.287 185.061,133.287 186.882,123.967 186.864,123.967 179.409,136.223 			"/>
			<polygon fill="none" stroke="#262262" stroke-miterlimit="10" points="166.482,136.223 168.809,142.012 164.14,142.012 
				161.591,133.287 164.891,133.287 163.069,123.967 163.087,123.967 170.542,136.223 			"/>
		</g>
	</g>
	<g>
		<path fill="#FFFFFF" d="M34.851,158.49h-3.675c-0.87,0-1.575-0.705-1.575-1.575v-30.687c0-0.87,0.705-1.575,1.575-1.575h51.821
			c0.87,0,1.575,0.705,1.575,1.575v30.687c0,0.87-0.706,1.575-1.575,1.575H60.928H34.851z"/>
		<path opacity="0.5" fill="#F5FC59" d="M84.43,126.233v30.686c0,0.871-0.708,1.569-1.579,1.569h-3.177
			c0.871,0,1.579-0.698,1.579-1.569v-30.686c0-0.87-0.708-1.578-1.579-1.578h3.177C83.722,124.655,84.43,125.363,84.43,126.233z"/>
		<polygon fill="#FFFFFF" points="37.59,136.724 35.42,136.724 35.42,130.415 56.244,130.415 56.244,136.724 47.762,136.724 		"/>
		<polygon opacity="0.5" fill="#F5FC59" points="37.59,136.724 35.42,136.724 35.42,130.415 56.244,130.415 56.244,136.724 
			47.762,136.724 		"/>
		<rect x="39.554" y="161.882" fill="#FFFFFF" width="16.818" height="5.089"/>
		<rect x="53.679" y="161.881" opacity="0.5" fill="#F5FC59" width="2.564" height="5.091"/>
		<path fill="#FFFFFF" d="M56.244,157.015l-0.047-5.118v-7.273c0-1.066-0.865-1.932-1.932-1.932c-1.066,0-1.932,0.865-1.932,1.932
			v-1.081c0-1.067-0.865-1.932-1.931-1.932c-1.067,0-1.932,0.864-1.932,1.932v-0.601c0-1.066-0.865-1.932-1.932-1.932
			c-1.066,0-1.931,0.865-1.931,1.932v-7.44c0-1.067-0.865-1.932-1.932-1.932c-1.066,0-1.931,0.864-1.931,1.932v9.411h-1.543
			c-1.531,0-2.773,1.241-2.773,2.773v2.442v2.911c0,1.276,0.55,2.491,1.51,3.334l2.8,2.457l0.011,3.087l14.243-0.113l-0.007-1.681
			c-0.003-0.579,0.223-1.135,0.629-1.549C56.023,158.159,56.249,157.598,56.244,157.015z"/>
		<g>
			<g>
				<path fill="none" stroke="#262262" stroke-miterlimit="10" d="M40.745,144.912h-1.543c-1.531,0-2.773,1.241-2.773,2.773v2.442
					v2.911c0,1.276,0.55,2.491,1.51,3.334l2.8,2.458l0.011,3.086l14.243-0.113l-0.007-1.681c-0.003-0.579,0.223-1.135,0.628-1.549
					l0,0c0.408-0.416,0.634-0.977,0.629-1.56l-0.047-5.118v-7.273c0-1.067-0.865-1.932-1.932-1.932l0,0
					c-1.066,0-1.932,0.864-1.932,1.932v2.413"/>
				<path fill="none" stroke="#262262" stroke-miterlimit="10" d="M44.607,147.036v-4.095c0-1.066,0.865-1.932,1.931-1.932l0,0
					c1.067,0,1.932,0.865,1.932,1.932v4.095"/>
				<path fill="none" stroke="#262262" stroke-miterlimit="10" d="M48.47,147.036v-3.494c0-1.067,0.865-1.932,1.932-1.932l0,0
					c1.066,0,1.931,0.864,1.931,1.932v3.494"/>
				<path fill="none" stroke="#262262" stroke-miterlimit="10" d="M40.745,150.128v-14.627c0-1.066,0.865-1.932,1.931-1.932l0,0
					c1.067,0,1.932,0.865,1.932,1.932v11.535"/>
				<rect x="39.554" y="161.882" fill="none" stroke="#262262" stroke-miterlimit="10" width="16.818" height="5.089"/>
			</g>
			<path fill="none" stroke="#262262" stroke-miterlimit="10" d="M34.851,158.49h-3.675c-0.87,0-1.575-0.705-1.575-1.575v-30.687
				c0-0.87,0.705-1.575,1.575-1.575h51.821c0.87,0,1.575,0.705,1.575,1.575v30.687c0,0.87-0.706,1.575-1.575,1.575H60.928"/>
		</g>
		<polyline fill="none" stroke="#262262" stroke-miterlimit="10" points="37.59,136.724 35.42,136.724 35.42,130.415 
			56.244,130.415 56.244,136.724 47.762,136.724 		"/>
		<line fill="none" stroke="#262262" stroke-miterlimit="10" x1="63.896" y1="130.415" x2="73.145" y2="130.415"/>
		<line fill="none" stroke="#262262" stroke-miterlimit="10" x1="63.896" y1="136.724" x2="80.339" y2="136.724"/>
		<line fill="none" stroke="#262262" stroke-miterlimit="10" x1="63.896" y1="143.033" x2="80.339" y2="143.033"/>
		<line fill="none" stroke="#262262" stroke-miterlimit="10" x1="63.896" y1="149.343" x2="80.339" y2="149.343"/>
	</g>
	<g opacity="0.25">
		<path fill="#FFFFFF" d="M132.924,61.462L132.924,61.462c0,1.223,0.628,2.215,2.236,2.215h1.271v-4.43h-1.271
			C133.552,59.247,132.924,60.239,132.924,61.462z"/>
		<g>
			<path fill="#FFFFFF" d="M144.456,49.948c2.908-2.757,6.837-4.449,11.161-4.449h-0.45c8.96,0,16.223,7.264,16.223,16.223v2.029
				c0,0.281,0.073,0.558,0.213,0.802l3.979,8.191c0.307,0.537-0.081,1.205-0.699,1.205h-2.494c-0.865,0-1.572,0.692-1.592,1.557
				l-0.144,7.359c-0.016,0.714-0.507,1.332-1.2,1.508l-9.062,2.3c-0.566,0.144-1.008,0.586-1.151,1.152l-0.701,2.771
				c-0.241,0.952-1.278,1.461-2.179,1.069l-12.751-5.554c-0.653-0.284-1.053-0.975-0.937-1.677c0.454-2.75-0.061-5-0.959-7.044
				c-0.873-1.892-6.695-14.977-0.308-24.17C142.151,52.145,143.138,51.019,144.456,49.948z"/>
		</g>
		<path opacity="0.5" fill="#F5FC59" d="M174.63,73.94h-2.487c-0.871,0-1.579,0.698-1.598,1.56l-0.144,7.358
			c-0.01,0.718-0.508,1.33-1.196,1.512l-9.062,2.296c-0.564,0.144-1.014,0.583-1.157,1.148l-0.699,2.775
			c-0.238,0.957-1.272,1.464-2.181,1.072l-1.321-0.574c0.096-0.144,0.173-0.315,0.221-0.498l0.708-2.775
			c0.144-0.564,0.584-1.004,1.148-1.148l9.061-2.296c0.689-0.182,1.187-0.794,1.196-1.512l0.144-7.358
			c0.02-0.861,0.728-1.56,1.598-1.56h2.488c0.621,0,1.014-0.67,0.698-1.206l-3.971-8.19c-0.144-0.239-0.221-0.517-0.221-0.804
			v-2.028c0-8.334-6.286-15.194-14.371-16.104c0.545-0.067,1.101-0.105,1.665-0.105c8.851,0.115,15.988,7.329,15.988,16.208v2.028
			c0,0.287,0.076,0.565,0.22,0.804l3.972,8.19C175.635,73.271,175.252,73.94,174.63,73.94z"/>
		<path fill="#FFFFFF" d="M144.493,70.447c0-0.753-0.632-1.365-1.411-1.365h-0.767l-0.944-3.001h-3.386l2.619,8.586h3.386V74.53
			l-0.832-2.73h-0.013C143.894,71.766,144.493,71.179,144.493,70.447z"/>
		<g>
			<polyline fill="#FFFFFF" points="139.948,66.082 143.916,66.082 143.916,55.933 139.948,55.933 136.431,55.933 136.431,66.082 
				139.948,66.082 			"/>
		</g>
		<g opacity="0.5">
			<g>
				<g>
					<polyline fill="#F5FC59" points="139.948,66.082 143.916,66.082 143.916,55.933 139.948,55.933 136.431,55.933 136.431,66.082 
						139.948,66.082 					"/>
				</g>
			</g>
		</g>
		<polygon fill="#FFFFFF" points="144.402,55.704 157.458,51.056 157.505,51.056 157.505,70.859 156.701,70.588 144.402,66.207 		
			"/>
		<g>
			<g>
				<g>
					<g>
						<g>
							<g>
								<path fill="none" stroke="#0B1C82" stroke-miterlimit="10" d="M155.167,45.5c8.96,0,16.223,7.263,16.223,16.222v2.029
									c0,0.282,0.074,0.559,0.213,0.803l3.979,8.191c0.307,0.537-0.081,1.205-0.699,1.205h-2.494
									c-0.865,0-1.572,0.692-1.592,1.557l-0.144,7.358c-0.016,0.715-0.507,1.332-1.2,1.508l-9.062,2.301
									c-0.566,0.144-1.008,0.586-1.151,1.152l-0.701,2.771c-0.241,0.952-1.278,1.461-2.179,1.069l-12.751-5.554
									c-0.654-0.285-1.053-0.974-0.937-1.678c0.455-2.75-0.061-5-0.959-7.043"/>
							</g>
						</g>
					</g>
				</g>
				<path fill="none" stroke="#262262" stroke-miterlimit="10" d="M155.617,45.5c-4.324,0-8.253,1.691-11.161,4.449"/>
			</g>
			<g>
				<g>
					<polygon fill="none" stroke="#0B1C82" stroke-miterlimit="10" points="144.05,55.83 157.461,51.056 157.505,51.056 
						157.505,70.859 157.461,70.859 144.05,66.082 					"/>
					<g>
						<polyline fill="none" stroke="#0B1C82" stroke-miterlimit="10" points="140.012,66.082 144.05,66.082 144.05,55.83 
							140.012,55.83 136.431,55.83 136.431,66.082 140.012,66.082 						"/>
					</g>
					<path fill="none" stroke="#0B1C82" stroke-miterlimit="10" d="M132.924,61.462L132.924,61.462c0,1.223,0.478,2.215,1.701,2.215
						h1.806v-4.43h-1.806C133.401,59.247,132.924,60.239,132.924,61.462z"/>
					<path fill="none" stroke="#0B1C82" stroke-miterlimit="10" d="M159.795,58.162c1.823,1.823,1.823,4.778,0,6.601"/>
					<path fill="none" stroke="#0B1C82" stroke-miterlimit="10" d="M162.206,55.751c3.154,3.154,3.154,8.269,0,11.423"/>
					<polyline fill="none" stroke="#0B1C82" stroke-miterlimit="10" points="143.111,71.799 143.916,74.53 143.916,74.667 
						140.643,74.667 138.11,66.082 141.384,66.082 142.297,69.083 					"/>
					<path fill="none" stroke="#0B1C82" stroke-miterlimit="10" d="M141.239,69.083h1.799c0.753,0,1.364,0.611,1.364,1.365l0,0
						c0,0.753-0.611,1.365-1.364,1.365h-0.728"/>
					<g>
						<line fill="none" stroke="#0B1C82" stroke-miterlimit="10" x1="141.201" y1="59.247" x2="139.279" y2="59.247"/>
						<line fill="none" stroke="#0B1C82" stroke-miterlimit="10" x1="141.201" y1="62.667" x2="139.279" y2="62.667"/>
					</g>
				</g>
			</g>
		</g>
	</g>
	<g>
		<circle fill="#FFFFFF" cx="48.282" cy="53.764" r="7.925"/>
		<path opacity="0.5" fill="#F5FC59" d="M56.069,53.764c0,4.382-3.541,7.923-7.923,7.923c-0.449,0-0.89-0.039-1.311-0.105
			c3.76-0.622,6.621-3.885,6.621-7.817c0-3.923-2.861-7.186-6.621-7.808c0.421-0.077,0.861-0.115,1.311-0.115
			C52.528,45.842,56.069,49.392,56.069,53.764z"/>
		<polygon fill="#FFFFFF" points="51.452,53.764 47.413,50.933 47.413,56.596 		"/>
		<path fill="#FFFFFF" d="M46.73,90.664h0.673c1.056,0,2.086,0.326,2.95,0.933l0,0c0.864,0.607,1.894,0.933,2.95,0.933h12.985
			c1.268,0,2.296-1.028,2.296-2.296l0,0c0-1.268-1.028-2.296-2.296-2.296H62.76h4.849c1.268,0,2.296-1.028,2.296-2.296l0,0
			c0-1.268-1.028-2.296-2.296-2.296H62.76h6.17c1.268,0,2.296-1.028,2.296-2.296l0,0c0-1.268-1.028-2.296-2.296-2.296
			c0,0-6.17,0-6.17,0h4.849c1.268,0,2.296-1.028,2.296-2.296l0,0c0-1.268-1.028-2.296-2.296-2.296h-9.91
			c-0.48,0-0.784-0.515-0.552-0.935l0,0c0.933-1.693,1.422-3.595,1.422-5.528v-1.52c0-1.952-1.582-3.534-3.534-3.534l0,0
			c-0.967,0-1.751,0.784-1.751,1.751l0,0c0,2.519-0.647,4.625-1.855,6.583c-0.834,1.353-1.931,2.525-3.129,3.571l-1.569,1.369"/>
		<polyline fill="#FFFFFF" points="41.445,74.161 46.73,74.161 46.73,92.529 41.445,92.529 		"/>
		<polyline opacity="0.5" fill="#F5FC59" points="41.445,74.161 46.73,74.161 46.73,92.529 41.445,92.529 		"/>
		<path fill="#FFFFFF" d="M79.439,46.521c-2.248-2.249-5.894-2.249-8.143,0c-0.02,0.021-0.033,0.045-0.053,0.065
			c-0.02-0.021-0.033-0.045-0.053-0.065c-2.249-2.249-5.894-2.249-8.143,0s-2.249,5.894,0,8.143l8.196,8.098l8.196-8.098
			C81.688,52.415,81.688,48.769,79.439,46.521z"/>
		<path opacity="0.5" fill="#F5FC59" d="M79.459,54.662l-8.2,8.095l-1.187-1.167l7.004-6.928c2.249-2.249,2.249-5.894,0-8.143
			c-0.823-0.813-1.828-1.339-2.88-1.55c1.837-0.402,3.837,0.124,5.262,1.55C81.708,48.768,81.708,52.413,79.459,54.662z"/>
		<polygon fill="#FFFFFF" points="96.552,80.31 80.616,80.31 80.616,89.348 83.008,89.348 83.008,92.048 83.114,92.048 
			86.447,89.348 96.552,89.348 		"/>
		<rect x="93.319" y="80.31" opacity="0.5" fill="#F5FC59" width="3.215" height="9.042"/>
		<polygon fill="none" stroke="#0B1C82" stroke-miterlimit="10" points="96.534,80.351 80.71,80.351 80.71,89.326 83.085,89.326 
			83.085,92.007 83.19,92.007 86.5,89.326 96.534,89.326 		"/>
		
			<line fill="none" stroke="#0B1C82" stroke-miterlimit="10" stroke-dasharray="1,2" x1="84.227" y1="84.831" x2="93.018" y2="84.831"/>
		<polygon fill="none" stroke="#0B1C82" stroke-miterlimit="10" points="51.452,53.764 47.413,50.933 47.413,56.596 		"/>
		<path fill="none" stroke="#0B1C82" stroke-miterlimit="10" d="M79.453,46.461c-2.257-2.257-5.916-2.257-8.173,0
			c-0.021,0.02-0.034,0.044-0.054,0.065c-0.02-0.021-0.033-0.045-0.053-0.065c-2.257-2.257-5.916-2.257-8.173,0
			c-2.256,2.256-2.256,5.916,0,8.172l8.226,8.127l8.227-8.127C81.71,52.376,81.71,48.717,79.453,46.461z"/>
		<path fill="none" stroke="#0B1C82" stroke-miterlimit="10" d="M62.76,78.753h4.849c1.268,0,2.296-1.028,2.296-2.296l0,0
			c0-1.268-1.028-2.296-2.296-2.296h-9.91c-0.48,0-0.784-0.515-0.552-0.935l0,0c0.933-1.693,1.422-3.595,1.422-5.528v-1.52
			c0-1.952-1.582-3.534-3.534-3.534l0,0c-0.967,0-1.751,0.784-1.751,1.751l0,0c0,2.519-0.647,4.625-1.855,6.583
			c-0.834,1.353-1.931,2.525-3.129,3.571l-1.569,1.369"/>
		<path fill="none" stroke="#0B1C82" stroke-miterlimit="10" d="M62.76,78.753h6.17c1.268,0,2.296,1.028,2.296,2.296l0,0
			c0,1.268-1.028,2.296-2.296,2.296h-6.17"/>
		<path fill="none" stroke="#0B1C82" stroke-miterlimit="10" d="M62.76,83.345h4.849c1.268,0,2.296,1.028,2.296,2.296l0,0
			c0,1.268-1.028,2.296-2.296,2.296H62.76"/>
		<path fill="none" stroke="#0B1C82" stroke-miterlimit="10" d="M62.76,87.937h3.528c1.268,0,2.296,1.028,2.296,2.296l0,0
			c0,1.268-1.028,2.296-2.296,2.296H53.303c-1.056,0-2.086-0.326-2.95-0.933l0,0c-0.864-0.607-1.894-0.933-2.95-0.933H46.73"/>
		<polyline fill="none" stroke="#0B1C82" stroke-miterlimit="10" points="41.445,74.161 46.73,74.161 46.73,92.529 41.445,92.529 		
			"/>
		<line fill="none" stroke="#0B1C82" stroke-miterlimit="10" x1="62.386" y1="53.764" x2="56.207" y2="53.764"/>
		<polyline fill="none" stroke="#0B1C82" stroke-miterlimit="10" points="80.101,53.764 88.622,53.764 88.622,77.587 		"/>
		<circle fill="none" stroke="#0B1C82" stroke-miterlimit="10" cx="48.282" cy="53.764" r="7.925"/>
	</g>
	<path opacity="0.5" fill="none" stroke="#262262" stroke-miterlimit="10" stroke-dasharray="1,2" d="M58.77,117.431v-8.984
		c0-2.432,1.398-4.403,3.124-4.403h13.324"/>
	<path opacity="0.5" fill="none" stroke="#262262" stroke-miterlimit="10" stroke-dasharray="1,2" d="M96.89,61.296H116.6
		c2.689,0,4.87,1.739,4.87,3.884v6.016"/>
	<path opacity="0.5" fill="none" stroke="#262262" stroke-miterlimit="10" stroke-dasharray="1,2" d="M163.51,104.313h8.881
		c2.863,0,5.184,2.321,5.184,5.184v9.182"/>
	<circle fill="none" stroke="#262262" stroke-miterlimit="10" cx="104.971" cy="73.079" r="1.883"/>
	<circle fill="none" stroke="#262262" stroke-miterlimit="10" cx="147.382" cy="158.49" r="1.883"/>
	
		<rect x="45.501" y="99.697" transform="matrix(0.7071 0.7071 -0.7071 0.7071 85.7355 -3.7655)" opacity="0.5" fill="none" stroke="#FBB040" stroke-miterlimit="10" width="3.823" height="3.824"/>
	<g opacity="0.5">
		<g>
			<g>
				<line fill="none" stroke="#FBB040" stroke-miterlimit="10" x1="119.475" y1="50.933" x2="122.546" y2="54.004"/>
			</g>
			<g>
				<line fill="none" stroke="#FBB040" stroke-miterlimit="10" x1="122.546" y1="50.933" x2="119.475" y2="54.004"/>
			</g>
		</g>
	</g>
	<g>
		<polyline fill="none" stroke="#262262" stroke-miterlimit="10" points="86.227,164.426 83.275,167.377 80.324,164.426 
			77.374,167.377 74.422,164.426 71.471,167.377 68.52,164.426 		"/>
	</g>
	<line fill="none" stroke="#262262" stroke-miterlimit="10" x1="160.55" y1="95.63" x2="168.595" y2="95.63"/>
	<line fill="none" stroke="#262262" stroke-miterlimit="10" x1="168.872" y1="113.938" x2="169.96" y2="113.938"/>
	<line fill="none" stroke="#262262" stroke-miterlimit="10" x1="130.979" y1="73.079" x2="132.066" y2="73.079"/>
	<line fill="none" stroke="#262262" stroke-miterlimit="10" x1="66.45" y1="114.699" x2="67.537" y2="114.699"/>
	<line fill="none" stroke="#262262" stroke-miterlimit="10" x1="74.485" y1="94.873" x2="75.573" y2="94.873"/>
	<line fill="none" stroke="#262262" stroke-miterlimit="10" x1="114.222" y1="171.029" x2="115.309" y2="171.029"/>
	<g>
		<path fill="#FFFFFF" d="M122.995,97.515c0.334,0.088,0.58,0.407,0.549,0.78l-0.037,0.445c-0.072,0.855-0.923,2.184-0.923,2.184
			c0,2.487-2.016,4.503-4.503,4.503l0,0c-2.486,0-4.502-2.016-4.502-4.503l0,0c-0.667-0.54-0.854-1.329-0.927-2.184l-0.037-0.445
			c-0.032-0.373,0.215-0.691,0.549-0.78v-0.694c0-2.45,1.986-4.437,4.437-4.437h0.958c2.45,0,4.437,1.986,4.437,4.437V97.515z"/>
		<path fill="#FFFFFF" d="M110.547,107.728c0.334,0.088,0.581,0.407,0.549,0.78l-0.038,0.445c-0.072,0.855-0.922,2.184-0.922,2.184
			c0,2.486-2.016,4.503-4.502,4.503l0,0c-2.487,0-4.503-2.017-4.503-4.503l0,0c-0.667-0.54-0.854-1.329-0.926-2.184l-0.038-0.445
			c-0.031-0.373,0.215-0.691,0.549-0.78v-0.694c0-2.45,1.986-4.437,4.437-4.437h0.958c2.45,0,4.437,1.986,4.437,4.437
			L110.547,107.728z"/>
		<path fill="#FFFFFF" d="M135.445,107.728c0.334,0.088,0.58,0.407,0.549,0.78l-0.037,0.445c-0.072,0.855-0.923,2.184-0.923,2.184
			c0,2.486-2.016,4.503-4.502,4.503l0,0c-2.487,0-4.503-2.017-4.503-4.503l0,0c-0.667-0.54-0.854-1.329-0.927-2.184l-0.037-0.445
			c-0.031-0.373,0.215-0.691,0.549-0.78v-0.694c0-2.45,1.986-4.437,4.437-4.437h0.958c2.45,0,4.437,1.986,4.437,4.437V107.728z"/>
		<path fill="#FFFFFF" d="M93.186,139.236v-16.523c0-1.386,0.877-2.62,2.187-3.077l7.506-2.169c0-0.923,0-1.845,0-2.768
			c0.318,0.242,1.268,0.896,2.65,0.927c1.506,0.034,2.549-0.693,2.854-0.924c0,0.921,0,1.843,0,2.765l7.511,2.169
			c1.31,0.457,2.188,1.691,2.188,3.078v16.522H93.186z"/>
		<path opacity="0.5" fill="#F5FC59" d="M93.186,139.236v-16.523c0-1.386,0.877-2.62,2.187-3.077l7.506-2.169
			c0-0.923,0-1.845,0-2.768c0.318,0.242,1.268,0.896,2.65,0.927c1.506,0.034,2.549-0.693,2.854-0.924c0,0.921,0,1.843,0,2.765
			l7.511,2.169c1.31,0.457,2.188,1.691,2.188,3.078v16.522H93.186z"/>
		<path fill="#FFFFFF" d="M80.738,149.6v-16.523c0-1.386,0.877-2.62,2.187-3.077l7.507-2.169v-3.102
			c0.191,0.188,1.187,1.125,2.754,1.124c1.565-0.001,2.558-0.937,2.75-1.124c0,1.033,0,2.067,0,3.102l7.511,2.169
			c1.31,0.457,2.188,1.691,2.188,3.078V149.6H80.738z"/>
		<line fill="none" stroke="#0B1C82" stroke-miterlimit="10" x1="118.045" y1="156.582" x2="118.045" y2="161.865"/>
		<path fill="#FFFFFF" d="M117.987,139.248v-16.523c0-1.386,0.878-2.62,2.188-3.076l7.507-2.17c0-0.923,0-1.845,0-2.768
			c0.318,0.242,1.268,0.896,2.649,0.928c1.507,0.033,2.549-0.694,2.855-0.925c-0.001,0.921-0.001,1.843-0.001,2.765l7.511,2.17
			c1.31,0.456,2.188,1.69,2.188,3.078v16.521H117.987z"/>
		<path opacity="0.5" fill="#F5FC59" d="M117.987,139.248v-16.523c0-1.386,0.878-2.62,2.188-3.076l7.507-2.17
			c0-0.923,0-1.845,0-2.768c0.318,0.242,1.268,0.896,2.649,0.928c1.507,0.033,2.549-0.694,2.855-0.925
			c-0.001,0.921-0.001,1.843-0.001,2.765l7.511,2.17c1.31,0.456,2.188,1.69,2.188,3.078v16.521H117.987z"/>
		<path fill="#FFFFFF" d="M98.117,118.096c0.334,0.089,0.581,0.408,0.549,0.78l-0.038,0.445c-0.072,0.855-0.922,2.185-0.922,2.185
			c0,2.486-2.016,4.502-4.502,4.502l0,0c-2.487,0-4.502-2.016-4.502-4.502l0,0c-0.667-0.54-0.854-1.329-0.927-2.185l-0.038-0.445
			c-0.031-0.372,0.215-0.691,0.549-0.78v-0.693c0-2.45,1.986-4.437,4.437-4.437h0.958c2.451,0,4.437,1.986,4.437,4.437
			L98.117,118.096z"/>
		<path fill="#FFFFFF" d="M122.995,117.939c0.334,0.089,0.58,0.408,0.549,0.78l-0.037,0.445c-0.072,0.855-0.923,2.185-0.923,2.185
			c0,2.486-2.016,4.502-4.503,4.502l0,0c-2.486,0-4.502-2.016-4.502-4.502l0,0c-0.667-0.54-0.854-1.329-0.927-2.185l-0.037-0.445
			c-0.032-0.373,0.215-0.691,0.549-0.78v-0.693c0-2.45,1.986-4.437,4.437-4.437h0.958c2.45,0,4.437,1.986,4.437,4.437V117.939z"/>
		<path fill="#FFFFFF" d="M147.833,117.939c0.334,0.089,0.58,0.408,0.549,0.78l-0.038,0.445c-0.071,0.855-0.922,2.184-0.922,2.184
			c0,2.487-2.016,4.503-4.503,4.503l0,0c-2.486,0-4.502-2.016-4.502-4.503l0,0c-0.667-0.539-0.854-1.328-0.927-2.184l-0.037-0.445
			c-0.032-0.373,0.214-0.691,0.549-0.78v-0.693c0-2.45,1.986-4.437,4.437-4.437h0.958c2.45,0,4.437,1.986,4.437,4.437V117.939z"/>
		<path opacity="0.5" fill="#F5FC59" d="M148.56,118.719l-0.033,0.449c-0.075,0.856-0.924,2.18-0.924,2.18
			c0,2.488-2.014,4.502-4.502,4.502c-0.225,0-0.449-0.017-0.666-0.059c2.172-0.315,3.836-2.188,3.836-4.443
			c0,0,0.85-1.323,0.916-2.18l0.041-0.449c0.033-0.366-0.216-0.69-0.549-0.774v-0.698c0-2.38-1.881-4.327-4.244-4.428
			c0.059-0.008,0.125-0.008,0.184-0.008h0.957c2.454,0,4.435,1.988,4.435,4.436v0.698
			C148.352,118.028,148.593,118.353,148.56,118.719z"/>
		<path opacity="0.5" fill="#F5FC59" d="M135.994,108.506l-0.033,0.449c-0.075,0.857-0.924,2.181-0.924,2.181
			c0,2.487-2.014,4.501-4.502,4.501c-0.225,0-0.449-0.017-0.666-0.058c2.172-0.316,3.837-2.188,3.837-4.443
			c0,0,0.849-1.323,0.915-2.181l0.041-0.449c0.034-0.366-0.216-0.69-0.549-0.774v-0.699c0-2.38-1.881-4.327-4.244-4.427
			c0.059-0.009,0.125-0.009,0.184-0.009h0.957c2.454,0,4.435,1.989,4.435,4.436v0.699
			C135.786,107.815,136.027,108.14,135.994,108.506z"/>
		<path opacity="0.5" fill="#F5FC59" d="M123.682,118.719l-0.033,0.449c-0.075,0.856-0.924,2.18-0.924,2.18
			c0,2.488-2.014,4.502-4.502,4.502c-0.225,0-0.449-0.017-0.666-0.059c2.172-0.315,3.837-2.188,3.837-4.443
			c0,0,0.849-1.323,0.915-2.18l0.041-0.449c0.033-0.366-0.216-0.69-0.549-0.774v-0.698c0-2.38-1.881-4.327-4.244-4.428
			c0.059-0.008,0.125-0.008,0.184-0.008h0.957c2.454,0,4.435,1.988,4.435,4.436v0.698
			C123.474,118.028,123.715,118.353,123.682,118.719z"/>
		<path opacity="0.5" fill="#F5FC59" d="M98.765,118.719l-0.033,0.449c-0.075,0.857-0.924,2.181-0.924,2.181
			c0,2.488-2.014,4.502-4.501,4.502c-0.225,0-0.45-0.017-0.666-0.059c2.172-0.316,3.836-2.188,3.836-4.443
			c0,0,0.849-1.323,0.916-2.181l0.042-0.449c0.033-0.366-0.216-0.69-0.549-0.773v-0.699c0-2.38-1.88-4.327-4.244-4.427
			c0.059-0.009,0.125-0.009,0.183-0.009h0.957c2.455,0,4.435,1.989,4.435,4.436v0.699C98.557,118.028,98.798,118.353,98.765,118.719
			z"/>
		<path opacity="0.5" fill="#F5FC59" d="M111.096,108.507l-0.033,0.449c-0.075,0.857-0.924,2.18-0.924,2.18
			c0,2.488-2.014,4.502-4.501,4.502c-0.225,0-0.449-0.017-0.666-0.058c2.172-0.316,3.836-2.188,3.836-4.444
			c0,0,0.849-1.323,0.915-2.18l0.042-0.449c0.034-0.366-0.216-0.691-0.549-0.774v-0.699c0-2.379-1.881-4.327-4.244-4.427
			c0.059-0.008,0.125-0.008,0.183-0.008h0.957c2.455,0,4.435,1.989,4.435,4.435v0.699
			C110.888,107.816,111.129,108.141,111.096,108.507z"/>
		<path opacity="0.5" fill="#F5FC59" d="M123.545,98.294l-0.033,0.449c-0.075,0.857-0.924,2.18-0.924,2.18
			c0,2.488-2.014,4.502-4.502,4.502c-0.225,0-0.449-0.017-0.665-0.059c2.172-0.316,3.836-2.188,3.836-4.443
			c0,0,0.849-1.323,0.915-2.18l0.042-0.449c0.033-0.366-0.217-0.691-0.55-0.774v-0.699c0-2.38-1.88-4.327-4.243-4.427
			c0.058-0.008,0.124-0.008,0.183-0.008h0.957c2.455,0,4.436,1.989,4.436,4.436v0.699C123.337,97.603,123.578,97.928,123.545,98.294
			z"/>
		<path fill="#FFFFFF" d="M105.634,149.6v-16.523c0-1.386,0.877-2.62,2.187-3.077l7.506-2.169v-3.102
			c0.191,0.188,1.187,1.125,2.754,1.124c1.565-0.001,2.559-0.937,2.751-1.124c0,1.033,0,2.067,0,3.102l7.511,2.169
			c1.31,0.457,2.187,1.691,2.187,3.078V149.6H105.634z"/>
		<path fill="#FFFFFF" d="M130.512,149.6v-16.523c0-1.386,0.877-2.62,2.187-3.077l7.507-2.169v-3.103
			c0.191,0.188,1.187,1.126,2.754,1.125c1.565-0.002,2.559-0.937,2.751-1.125c0,1.034,0,2.068,0,3.103l7.51,2.169
			c1.311,0.457,2.188,1.691,2.188,3.078V149.6H130.512z"/>
		<path opacity="0.5" fill="#F5FC59" d="M155.407,133.082V149.6h-3.27v-16.518c0-1.39-0.883-2.621-2.188-3.079l-6.989-2.223
			l-0.525-1.963c0.167,0.025,0.342,0.033,0.524,0.033c1.564,0,2.563-0.932,2.755-1.123v3.104l7.505,2.172
			C154.534,130.461,155.407,131.692,155.407,133.082z"/>
		<path opacity="0.5" fill="#F5FC59" d="M130.529,133.082V149.6h-3.27v-16.518c0-1.39-0.882-2.621-2.188-3.079l-6.989-2.223
			l-0.525-1.963c0.167,0.025,0.342,0.033,0.524,0.033c1.564,0,2.563-0.932,2.755-1.123v3.104l7.505,2.172
			C129.656,130.461,130.529,131.692,130.529,133.082z"/>
		<path opacity="0.5" fill="#F5FC59" d="M105.613,133.082V149.6h-3.27v-16.518c0-1.39-0.882-2.621-2.188-3.079l-6.989-2.223
			l-0.525-1.963c0.167,0.025,0.341,0.033,0.524,0.033c1.564,0,2.563-0.932,2.754-1.123v3.104l7.505,2.172
			C104.74,130.461,105.613,131.692,105.613,133.082z"/>
		<path fill="none" stroke="#0B1C82" stroke-miterlimit="10" d="M98.081,117.939c0.334,0.088,0.581,0.407,0.549,0.779l-0.038,0.445
			c-0.072,0.855-0.922,2.185-0.922,2.185c0,2.486-2.016,4.503-4.503,4.503l0,0c-2.486,0-4.502-2.017-4.502-4.503l0,0
			c-0.667-0.54-0.854-1.329-0.926-2.185l-0.038-0.445c-0.032-0.372,0.215-0.691,0.549-0.779l0-0.694c0-2.45,1.986-4.436,4.437-4.436
			h0.958c2.45,0,4.437,1.985,4.437,4.436V117.939z"/>
		<path fill="none" stroke="#0B1C82" stroke-miterlimit="10" d="M95.917,124.728v3.102l7.511,2.17
			c1.31,0.456,2.187,1.69,2.187,3.077V149.6"/>
		<path fill="none" stroke="#0B1C82" stroke-miterlimit="10" d="M90.431,124.885v3.101l-7.507,2.17
			c-1.309,0.456-2.187,1.69-2.187,3.077v4.773"/>
		<line fill="none" stroke="#0B1C82" stroke-miterlimit="10" x1="86.157" y1="135.811" x2="86.157" y2="146.634"/>
		<path fill="none" stroke="#0B1C82" stroke-miterlimit="10" d="M122.977,117.939c0.335,0.088,0.581,0.407,0.549,0.779l-0.037,0.445
			c-0.072,0.855-0.923,2.185-0.923,2.185c0,2.486-2.016,4.503-4.502,4.503l0,0c-2.487,0-4.503-2.017-4.503-4.503l0,0
			c-0.667-0.54-0.854-1.329-0.926-2.185l-0.038-0.445c-0.031-0.372,0.215-0.691,0.549-0.779v-0.694c0-2.45,1.986-4.436,4.437-4.436
			h0.958c2.45,0,4.437,1.985,4.437,4.436V117.939z"/>
		<path fill="none" stroke="#0B1C82" stroke-miterlimit="10" d="M120.813,124.728v3.102l7.511,2.17
			c1.31,0.456,2.188,1.69,2.188,3.077V149.6"/>
		<path fill="none" stroke="#0B1C82" stroke-miterlimit="10" d="M115.309,124.728v3.102l-7.506,2.17
			c-1.31,0.456-2.187,1.69-2.187,3.077V149.6"/>
		<line fill="none" stroke="#0B1C82" stroke-miterlimit="10" x1="125.074" y1="135.811" x2="125.074" y2="149.6"/>
		<line fill="none" stroke="#0B1C82" stroke-miterlimit="10" x1="111.053" y1="135.811" x2="111.053" y2="149.6"/>
		<path fill="none" stroke="#0B1C82" stroke-miterlimit="10" d="M147.873,117.939c0.334,0.088,0.58,0.407,0.549,0.779l-0.038,0.445
			c-0.071,0.855-0.922,2.185-0.922,2.185c0,2.486-2.016,4.503-4.503,4.503l0,0c-2.486,0-4.502-2.017-4.502-4.503l0,0
			c-0.667-0.54-0.854-1.329-0.927-2.185l-0.037-0.445c-0.032-0.372,0.214-0.691,0.549-0.779v-0.694c0-2.45,1.986-4.436,4.437-4.436
			h0.958c2.45,0,4.437,1.985,4.437,4.436V117.939z"/>
		<path fill="none" stroke="#0B1C82" stroke-miterlimit="10" d="M145.71,124.728v3.102l7.51,2.17
			c1.311,0.456,2.188,1.69,2.188,3.077"/>
		<path fill="none" stroke="#0B1C82" stroke-miterlimit="10" d="M140.205,124.728v3.102l-7.507,2.17
			c-1.31,0.456-2.187,1.69-2.187,3.077V149.6"/>
		<line fill="none" stroke="#0B1C82" stroke-miterlimit="10" x1="149.97" y1="135.811" x2="149.97" y2="146.628"/>
		<line fill="none" stroke="#0B1C82" stroke-miterlimit="10" x1="135.949" y1="135.811" x2="135.949" y2="149.6"/>
		<line fill="none" stroke="#0B1C82" stroke-miterlimit="10" x1="155.407" y1="133.076" x2="155.407" y2="137.85"/>
		<path fill="none" stroke="#0B1C82" stroke-miterlimit="10" d="M110.529,107.727c0.334,0.088,0.581,0.407,0.549,0.78l-0.038,0.445
			c-0.072,0.855-0.922,2.185-0.922,2.185c0,2.486-2.016,4.502-4.502,4.502l0,0c-2.486,0-4.502-2.016-4.502-4.502l0,0
			c-0.667-0.541-0.854-1.329-0.926-2.185l-0.038-0.445c-0.032-0.373,0.215-0.691,0.549-0.78v-0.693c0-2.45,1.986-4.437,4.436-4.437
			h0.958c2.45,0,4.437,1.986,4.437,4.437V107.727z"/>
		<polyline fill="none" stroke="#0B1C82" stroke-miterlimit="10" points="108.366,114.516 108.366,117.616 109.994,118.087 		"/>
		<polyline fill="none" stroke="#0B1C82" stroke-miterlimit="10" points="102.861,114.516 102.861,117.616 101.234,118.087 		"/>
		<path fill="none" stroke="#0B1C82" stroke-miterlimit="10" d="M122.977,97.515c0.335,0.088,0.581,0.407,0.549,0.78l-0.037,0.445
			c-0.072,0.855-0.923,2.184-0.923,2.184c0,2.487-2.016,4.502-4.502,4.502l0,0c-2.487,0-4.503-2.016-4.503-4.502l0,0
			c-0.667-0.54-0.854-1.329-0.926-2.184l-0.038-0.445c-0.031-0.373,0.215-0.691,0.549-0.78v-0.694c0-2.45,1.986-4.437,4.437-4.437
			h0.958c2.45,0,4.437,1.986,4.437,4.437V97.515z"/>
		<path fill="none" stroke="#0B1C82" stroke-miterlimit="10" d="M135.427,107.727c0.335,0.088,0.581,0.407,0.55,0.78l-0.038,0.445
			c-0.072,0.855-0.923,2.185-0.923,2.185c0,2.486-2.016,4.502-4.502,4.502l0,0c-2.486,0-4.503-2.016-4.503-4.502l0,0
			c-0.667-0.541-0.854-1.329-0.926-2.185l-0.038-0.445c-0.031-0.373,0.215-0.691,0.549-0.78l0.001-0.693
			c0-2.45,1.985-4.437,4.436-4.437h0.958c2.45,0,4.437,1.986,4.437,4.437V107.727z"/>
		<polyline fill="none" stroke="#0B1C82" stroke-miterlimit="10" points="133.206,114.516 133.206,117.616 134.833,118.087 		"/>
		<polyline fill="none" stroke="#0B1C82" stroke-miterlimit="10" points="127.759,114.516 127.759,117.616 126.132,118.087 		"/>
		<polyline fill="none" stroke="#0B1C82" stroke-miterlimit="10" points="125.041,161.273 125.041,149.6 111.049,149.6 
			111.049,161.268 		"/>
		<path fill="none" stroke="#0B1C82" stroke-miterlimit="10" d="M76.979,120.783c0-22.689,18.393-41.083,41.083-41.083
			c22.688,0,41.082,18.394,41.082,41.083"/>
	</g>
</g>
</svg>
