<?xml version="1.0" encoding="utf-8"?>
<!-- Generator: Adobe Illustrator 16.0.0, SVG Export Plug-In . SVG Version: 6.00 Build 0)  -->
<!DOCTYPE svg PUBLIC "-//W3C//DTD SVG 1.1//EN" "http://www.w3.org/Graphics/SVG/1.1/DTD/svg11.dtd">
<svg version="1.1" id="Ñëîé_1" xmlns="http://www.w3.org/2000/svg" xmlns:xlink="http://www.w3.org/1999/xlink" x="0px" y="0px"
	 width="2600px" height="2500px" viewBox="0 0 2600 2500" enable-background="new 0 0 2600 2500" xml:space="preserve">
<g>
	<g>
		
			<path fill="none" stroke="#0B1C82" stroke-width="25.4676" stroke-linecap="round" stroke-linejoin="round" stroke-miterlimit="10" stroke-dasharray="139.6138" d="
			M86.581,1220.169C100.183,656.242,498.401,187.62,1028.937,66.601"/>
		
			<path fill="none" stroke="#0B1C82" stroke-width="25.4676" stroke-linecap="round" stroke-linejoin="round" stroke-miterlimit="10" stroke-dasharray="148.5609" d="
			M1594.586,2427.786c-94.313,23.513-192.99,35.994-294.584,35.994c-162.665,0-317.855-31.998-459.622-90.043"/>
		
			<path fill="none" stroke="#0B1C82" stroke-width="25.4676" stroke-linecap="round" stroke-linejoin="round" stroke-miterlimit="10" stroke-dasharray="139.6138" d="
			M2100.301,337.409c245.583,215.538,403.431,528.625,413.019,878.739"/>
		<circle fill="#FFF8B8" cx="1300.001" cy="1250" r="891.176"/>
	</g>
	<g>
		
			<path fill="#43D7F9" stroke="#0B1C82" stroke-width="25.4676" stroke-linecap="round" stroke-linejoin="round" stroke-miterlimit="10" d="
			M1293.811,38.491l511.955,278.92c6.023,3.261,9.758,9.577,9.758,16.413V889.83c0,6.858-3.734,13.153-9.758,16.436l-511.955,278.92
			c-5.591,3.034-12.314,3.034-17.905,0l-511.957-278.92c-5.999-3.283-9.757-9.578-9.757-16.436V333.824
			c0-6.836,3.758-13.152,9.757-16.413l511.957-278.92C1281.497,35.462,1288.22,35.462,1293.811,38.491z"/>
		
			<path fill="#FFFFFF" stroke="#0B1C82" stroke-width="25.4676" stroke-linecap="round" stroke-linejoin="round" stroke-miterlimit="10" d="
			M1047.449,719.038l231.09-52.782c2.354-0.525,4.572,1.177,4.482,3.437l-12.292,331.145c-0.135,3.708,5.207,4.935,6.904,1.603
			l248.77-492.464c1.313-2.603-1.154-5.477-4.119-4.802l-224.119,51.207c-2.309,0.52-4.527-1.155-4.482-3.376l5.636-330.349
			c0.067-3.686-5.206-4.841-6.88-1.536L1043.33,714.264C1042.016,716.844,1044.483,719.718,1047.449,719.038z"/>
		<g>
			<g>
				<path fill="#FFE252" stroke="#0B1C82" stroke-width="25.4676" stroke-miterlimit="10" d="M1986.762,641.115l-61.624-61.624
					c89.189-116.264,80.613-283.371-25.788-389.772c-115.774-115.774-303.401-115.835-419.176-0.061
					c-115.713,115.712-115.713,303.401,0.062,419.175c106.401,106.402,273.569,114.917,389.772,25.789l61.623,61.624"/>
				
					<path fill="#FFFFFF" stroke="#0B1C82" stroke-width="25.4676" stroke-linecap="round" stroke-linejoin="round" stroke-miterlimit="10" d="
					M1847.649,241.419c85.146,85.146,85.146,223.707-0.001,308.854c-85.145,85.145-223.707,85.146-308.853,0
					c-85.207-85.207-85.207-223.769-0.062-308.914C1623.881,156.212,1762.441,156.212,1847.649,241.419z"/>
				
					<path fill="#FFE252" stroke="#0B1C82" stroke-width="25.4676" stroke-linecap="round" stroke-linejoin="round" stroke-miterlimit="10" d="
					M2169.542,762.448c31.962,31.962,30.687,84.574-3.824,114.889c-31.495,27.664-79.745,24.151-109.386-5.491l-136.839-131.52
					c-8.831-8.832-8.831-23.15,0-31.982l79.322-79.322c8.832-8.832,23.15-8.832,31.982,0L2169.542,762.448z"/>
			</g>
			<g>
				
					<path fill="none" stroke="#0B1C82" stroke-width="25.4676" stroke-linecap="round" stroke-linejoin="round" stroke-miterlimit="10" d="
					M1607.912,331.936c0-47.101,38.183-85.284,85.284-85.284c47.101,0,85.283,38.183,85.283,85.284s-38.183,85.284-85.283,85.284
					V464.9"/>
				
					<line fill="none" stroke="#0B1C82" stroke-width="25.4676" stroke-linecap="round" stroke-linejoin="round" stroke-miterlimit="10" x1="1693.196" y1="544.986" x2="1693.196" y2="532.795"/>
			</g>
		</g>
	</g>
	<g id="wholesale_trade_8_">
		<g>
			<g>
				
					<path fill="#FFFFFF" stroke="#0B1C82" stroke-width="25.4676" stroke-linecap="round" stroke-linejoin="round" stroke-miterlimit="10" d="
					M149.281,1852.669c-112.36-110.121-116.539-288.891-11.345-404.177l-35.773-35.061c-10.716-10.502-2.762-28.683,12.224-27.939
					l119.828,5.937c8.249,0.409,14.89,6.917,15.464,15.156l8.348,119.685c1.044,14.968-16.972,23.287-27.688,12.784l-30.735-30.123
					c-63.416,80.2-57.409,196.974,17.254,270.15l6.878,6.741c19.301,18.916,19.613,49.897,0.696,69.198l-1.497,1.527
					c-19.258,19.649-50.925,19.564-70.078-0.188L149.281,1852.669z"/>
				
					<path fill="#FFFFFF" stroke="#0B1C82" stroke-width="25.4676" stroke-linecap="round" stroke-linejoin="round" stroke-miterlimit="10" d="
					M1198.503,1843.075c110.536-111.952,111.777-290.766,4.704-404.31l35.192-35.643c10.542-10.677,2.291-28.724-12.682-27.735
					l-119.715,7.905c-8.24,0.544-14.773,7.162-15.213,15.408l-6.381,119.805c-0.798,14.984,17.352,23.005,27.895,12.328
					l30.236-30.624c64.725,79.147,60.637,196.004-12.815,270.396l-6.767,6.854c-18.987,19.231-18.79,50.213,0.44,69.201l1.521,1.502
					c19.578,19.33,51.24,18.726,70.065-1.339L1198.503,1843.075z"/>
			</g>
			<g>
				<g>
					<g>
						<g>
							
								<path fill="#FFE252" stroke="#0B1C82" stroke-width="25.4676" stroke-linecap="round" stroke-linejoin="round" stroke-miterlimit="10" d="
								M643.315,1118.127c69.226-30.71,152.36-25.493,218.966,21.05c101.232,70.737,125.953,210.146,55.215,311.378
								c-58.373,83.536-163.506,114.972-255.362,83.661"/>
						</g>
					</g>
				</g>
				<g>
					<g>
						<g>
							
								<circle fill="#FFFFFF" stroke="#0B1C82" stroke-width="25.4676" stroke-linecap="round" stroke-linejoin="round" stroke-miterlimit="10" cx="571.255" cy="1329.831" r="223.613"/>
						</g>
					</g>
					<g>
						
							<path fill="none" stroke="#0B1C82" stroke-width="25.4676" stroke-linecap="round" stroke-linejoin="round" stroke-miterlimit="10" d="
							M644.022,1276.062l-0.992-21.96c-0.99-21.929-19.569-38.903-41.499-37.913l-70.673,3.191
							c-21.929,0.991-38.903,19.57-37.913,41.499l1.474,32.635c0.991,21.929,19.57,38.903,41.499,37.913l70.674-3.191
							c21.929-0.99,40.508,15.984,41.499,37.913l1.474,32.635c0.99,21.929-15.984,40.509-37.913,41.499l-70.673,3.191
							c-21.929,0.991-40.509-15.984-41.499-37.913l-1.023-22.666"/>
						
							<line fill="none" stroke="#0B1C82" stroke-width="25.4676" stroke-linecap="round" stroke-linejoin="round" stroke-miterlimit="10" x1="576.314" y1="1441.874" x2="578.704" y2="1494.79"/>
						
							<line fill="none" stroke="#0B1C82" stroke-width="25.4676" stroke-linecap="round" stroke-linejoin="round" stroke-miterlimit="10" x1="563.806" y1="1164.873" x2="566.195" y2="1217.78"/>
					</g>
				</g>
			</g>
		</g>
		<g>
			<g>
				<g>
					<g>
						<g>
							
								<path fill="none" stroke="#0B1C82" stroke-width="25.4676" stroke-linecap="round" stroke-linejoin="round" stroke-miterlimit="10" d="
								M625.723,1712.656l41.157-91.285c1.539-3.412,6.43-3.412,7.969,0l41.157,91.285"/>
							
								<path fill="none" stroke="#0B1C82" stroke-width="25.4676" stroke-linecap="round" stroke-linejoin="round" stroke-miterlimit="10" d="
								M914.945,1841.326l41.11-91.305c1.536-3.414-1.73-7.018-5.322-5.873l-96.09,30.636"/>
							
								<path fill="none" stroke="#0B1C82" stroke-width="25.4676" stroke-linecap="round" stroke-linejoin="round" stroke-miterlimit="10" d="
								M943.422,2029.576l92.142-40.833c3.444-1.526,3.441-6.371-0.006-7.892l-92.208-40.686"/>
							
								<path fill="none" stroke="#0B1C82" stroke-width="25.4676" stroke-linecap="round" stroke-linejoin="round" stroke-miterlimit="10" d="
								M424.008,1841.326l-41.11-91.305c-1.537-3.414,1.73-7.018,5.322-5.873l96.089,30.636"/>
							
								<path fill="none" stroke="#0B1C82" stroke-width="25.4676" stroke-linecap="round" stroke-linejoin="round" stroke-miterlimit="10" d="
								M625.723,2262.306l41.157,91.284c1.539,3.412,6.43,3.412,7.969,0l41.157-91.284"/>
							
								<path fill="none" stroke="#0B1C82" stroke-width="25.4676" stroke-linecap="round" stroke-linejoin="round" stroke-miterlimit="10" d="
								M914.945,2131.462l41.11,91.305c1.536,3.414-1.73,7.019-5.322,5.873l-96.09-30.637"/>
							
								<path fill="none" stroke="#0B1C82" stroke-width="25.4676" stroke-linecap="round" stroke-linejoin="round" stroke-miterlimit="10" d="
								M424.008,2131.462l-41.11,91.305c-1.537,3.414,1.73,7.019,5.322,5.873l96.089-30.637"/>
							
								<path fill="none" stroke="#0B1C82" stroke-width="25.4676" stroke-linecap="round" stroke-linejoin="round" stroke-miterlimit="10" d="
								M395.531,2029.576l-92.142-40.833c-3.445-1.526-3.441-6.371,0.006-7.892l92.208-40.686"/>
						</g>
						
							<circle fill="#FFE252" stroke="#0B1C82" stroke-width="25.4676" stroke-linecap="round" stroke-linejoin="round" stroke-miterlimit="10" cx="668.669" cy="1987.044" r="216.864"/>
					</g>
				</g>
				
					<polygon fill="#FFFFFF" stroke="#0B1C82" stroke-width="25.4676" stroke-linecap="round" stroke-linejoin="round" stroke-miterlimit="10" points="
					670.05,1969.909 694.687,1827.526 573.414,2013.359 662.687,2005.608 638.05,2147.991 759.323,1962.158 				"/>
			</g>
		</g>
	</g>
	<g>
		<g>
			
				<line fill="none" stroke="#0B1C82" stroke-width="25.4676" stroke-linecap="round" stroke-linejoin="round" stroke-miterlimit="10" x1="1639.897" y1="2204.919" x2="1337.343" y2="2204.919"/>
			
				<line fill="none" stroke="#0B1C82" stroke-width="25.4676" stroke-linecap="round" stroke-linejoin="round" stroke-miterlimit="10" x1="2235.133" y1="2204.919" x2="1738.264" y2="2204.919"/>
			
				<path fill="#43D7F9" stroke="#0B1C82" stroke-width="25.4676" stroke-linecap="round" stroke-linejoin="round" stroke-miterlimit="10" d="
				M1681.809,2105.13h14.543c23.147,0,41.912,18.764,41.912,41.911v122.741c0,23.146-18.765,41.911-41.912,41.911h-14.543
				c-23.146,0-41.911-18.765-41.911-41.911v-122.741C1639.897,2123.894,1658.662,2105.13,1681.809,2105.13z"/>
			
				<line fill="none" stroke="#0B1C82" stroke-width="25.4676" stroke-linecap="round" stroke-linejoin="round" stroke-miterlimit="10" x1="1857.578" y1="2249.824" x2="1857.578" y2="2165.003"/>
			
				<line fill="none" stroke="#0B1C82" stroke-width="25.4676" stroke-linecap="round" stroke-linejoin="round" stroke-miterlimit="10" x1="2046.355" y1="2249.824" x2="2046.355" y2="2165.003"/>
			
				<line fill="none" stroke="#0B1C82" stroke-width="25.4676" stroke-linecap="round" stroke-linejoin="round" stroke-miterlimit="10" x1="1337.343" y1="2249.824" x2="1337.343" y2="2165.003"/>
			
				<line fill="none" stroke="#0B1C82" stroke-width="25.4676" stroke-linecap="round" stroke-linejoin="round" stroke-miterlimit="10" x1="1526.12" y1="2249.824" x2="1526.12" y2="2165.003"/>
			
				<line fill="none" stroke="#0B1C82" stroke-width="25.4676" stroke-linecap="round" stroke-linejoin="round" stroke-miterlimit="10" x1="2235.133" y1="2249.824" x2="2235.133" y2="2165.003"/>
		</g>
		<g>
			
				<path fill="#FFE252" stroke="#0B1C82" stroke-width="25.4676" stroke-linecap="round" stroke-linejoin="round" stroke-miterlimit="10" d="
				M1822.793,1149.895c-21.106-17.836-52.003-17.836-73.109,0l-252.816,263.385c-15.818,16.479-24.651,38.438-24.651,61.281v510.4
				c0,26.658,21.61,48.27,48.27,48.27h531.505c26.658,0,48.27-21.611,48.27-48.27V1474.56c0-22.843-8.834-44.801-24.651-61.281
				L1822.793,1149.895z"/>
			<g>
				<g>
					
						<path fill="#FFE252" stroke="#0B1C82" stroke-width="25.4676" stroke-linecap="round" stroke-linejoin="round" stroke-miterlimit="10" d="
						M1880.199,1640.719l0.08-29.528c0.081-29.486-23.757-53.454-53.242-53.535l-95.029-0.26
						c-29.485-0.081-53.454,23.757-53.534,53.243l-0.12,43.882c-0.08,29.486,23.758,53.454,53.243,53.535l95.028,0.259
						c29.486,0.081,53.324,24.049,53.243,53.535l-0.12,43.882c-0.08,29.486-24.049,53.324-53.534,53.243l-95.028-0.26
						c-29.486-0.08-53.324-24.048-53.244-53.534l0.084-30.477"/>
					
						<line fill="none" stroke="#0B1C82" stroke-width="25.4676" stroke-linecap="round" stroke-linejoin="round" stroke-miterlimit="10" x1="1778.699" y1="1858.841" x2="1778.505" y2="1929.991"/>
					
						<line fill="none" stroke="#0B1C82" stroke-width="25.4676" stroke-linecap="round" stroke-linejoin="round" stroke-miterlimit="10" x1="1779.717" y1="1486.382" x2="1779.522" y2="1557.521"/>
				</g>
			</g>
			
				<circle fill="#FFFFFF" stroke="#0B1C82" stroke-width="25.4676" stroke-linecap="round" stroke-linejoin="round" stroke-miterlimit="10" cx="1786.238" cy="1339.452" r="62.108"/>
		</g>
		<g>
			
				<circle fill="#FFFFFF" stroke="#0B1C82" stroke-width="25.4676" stroke-linecap="round" stroke-linejoin="round" stroke-miterlimit="10" cx="2246.28" cy="1541.235" r="291.798"/>
			
				<polyline fill="#FFFFFF" stroke="#0B1C82" stroke-width="25.4676" stroke-linecap="round" stroke-linejoin="round" stroke-miterlimit="10" points="
				2094.474,1525.322 2205.035,1648.02 2393.678,1423.017 			"/>
		</g>
	</g>
</g>
</svg>
